<svg height="477pt" viewBox="0 -5 477.44339 477" width="477pt" xmlns="http://www.w3.org/2000/svg"><path d="m469.449219 228.421875c0 110.457031-89.542969 200-200 200s-200-89.542969-200-200 89.542969-200 200-200 200 89.542969 200 200zm0 0" fill="#ccdde6"/><path d="m373.359375 179.535156c31.300781-.039062 62.464844 4.078125 92.679687 12.246094-11.160156-59.796875-48.910156-111.273438-102.582031-139.894531-4 30.617187-11.933593 60.59375-23.609375 89.183593 18.988282 3.054688 33.085938 19.234376 33.511719 38.464844zm0 0" fill="#0093ba"/><path d="m333.449219 220.421875c-10.292969-.003906-20.183594-4-27.59375-11.144531-10.28125 34.871094-43.335938 133.871094-105.398438 206.921875 72.890625 26.703125 154.652344 8.859375 209.789063-45.785157-9.484375-83.511718-38.253906-131.382812-57.773438-155.023437-5.816406 3.25-12.359375 4.980469-19.023437 5.03125zm0 0" fill="#ffc117"/><path d="m293.449219 180.421875c.03125-9.492187 3.46875-18.652344 9.6875-25.824219-14.792969-20.984375-56.898438-70.34375-139.25-96-58.738281 36.460938-94.457031 100.691406-94.4375 169.824219.003906 7.167969.390625 14.328125 1.160156 21.457031 68.957031-37.597656 144.75-60.992187 222.902344-68.800781-.007813-.242187-.0625-.441406-.0625-.65625zm0 0" fill="#ec4042"/><path d="m373.449219 180.421875c0 22.089844-17.910157 40-40 40-22.09375 0-40-17.910156-40-40s17.90625-40 40-40c22.089843 0 40 17.910156 40 40zm0 0" fill="#abbac2"/><path d="m469.449219 460.421875c-21.121094-29.007813-46.882813-54.332031-76.242188-74.960937-24.429687-17.753907-53.582031-27.859376-83.757812-29.039063-56.402344-.140625-112.429688 9.160156-165.761719 27.519531-89.039062 30.800782-138.238281 76.480469-138.238281 76.480469zm0 0" fill="#a3783c"/><path d="m93.449219 428.421875h16v16h-16zm0 0"/><path d="m189.449219 396.421875h16v16h-16zm0 0"/><path d="m237.449219 436.421875h16v16h-16zm0 0"/><path d="m309.449219 388.421875h16v16h-16zm0 0"/><path d="m381.449219 436.421875h16v16h-16zm0 0"/><path d="m269.449219 20.421875c-85.585938.023437-162.417969 52.464844-193.625 132.160156-31.207031 79.691407-10.414063 170.363281 52.398437 228.496094-81.414062 30.671875-126.261718 71.664063-128.222656 73.480469l10.894531 11.726562c.472657-.449218 48.96875-44.878906 135.410157-74.785156 52.492187-18.050781 107.632812-27.207031 163.144531-27.078125 28.597656 1.109375 56.207031 10.746094 79.285156 27.671875 28.507813 20.105469 53.546875 44.722656 74.136719 72.878906l13.152344-9.101562c-19.582032-26.976563-43.074219-50.886719-69.703126-70.9375 65.265626-57.019532 88.316407-148.542969 57.851563-229.675782-30.464844-81.136718-108.058594-134.863281-194.722656-134.835937zm186.023437 160.398437c-24.550781-5.667968-49.628906-8.753906-74.824218-9.199218-3.089844-16.390625-14.453126-30.015625-30.023438-36 8.683594-22.9375 15.097656-46.671875 19.152344-70.863282 42.515625 26.132813 73.234375 67.738282 85.695312 116.0625zm-122.023437 31.601563c-17.675781 0-32-14.328125-32-32s14.324219-32 32-32c17.671875 0 32 14.328125 32 32s-14.328125 32-32 32zm21.335937-155.929687c-3.886718 26-10.640625 51.488281-20.136718 76-.402344 0-.800782-.0625-1.199219-.0625-10.628907.003906-20.949219 3.554687-29.328125 10.089843-31.65625-39.039062-73.414063-68.648437-120.730469-85.601562 53.878906-27.132813 117.394531-27.269531 171.394531-.375zm-189.761718 10.9375c50.535156 15.355468 95.214843 45.703124 128.113281 87.023437-3.777344 5.84375-6.234375 12.4375-7.199219 19.328125-72.683594 8.253906-143.261719 29.667969-208.273438 63.199219-.128906-2.839844-.238281-5.679688-.238281-8.542969.03125-65.042969 33.003907-125.648438 87.597657-161.007812zm-85.777344 186.871093c64.394531-34.28125 134.660156-56.148437 207.136718-64.464843 1.605469 7.976562 5.214844 15.410156 10.488282 21.601562-15.1875 49.679688-36.015625 97.460938-62.078125 142.398438-30.34375 4.328124-60.230469 11.398437-89.296875 21.128906-36.3125-30.585938-59.933594-73.605469-66.25-120.664063zm175.472656 97.058594c22.753906-41.035156 41.355469-84.234375 55.527344-128.960937 12.25 6.832031 26.886718 7.90625 40 2.941406 19.507812 25.386718 42.761718 69.714844 51.59375 142.019531-2.988282 2.832031-6.070313 5.574219-9.253906 8.230469-24.546876-16.816406-53.398438-26.242188-83.136719-27.167969-18.28125.03125-36.550781 1.011719-54.730469 2.9375zm161.210938 1.0625c-10.128907-66.800781-32.457032-109.480469-51.769532-135.199219 8.984375-7.503906 14.921875-18.03125 16.6875-29.601562 26.390625.503906 52.632813 4.070312 78.199219 10.632812 8.804687 55.21875-6.945313 111.527344-43.117187 154.167969zm0 0"/><path d="m199.9375 15.421875-4.976562-15.199219c-78.464844 25.929688-138.234376 90.152344-158.472657 170.269532l15.527344 3.859374c18.878906-74.789062 74.675781-134.738281 147.921875-158.929687zm0 0"/><path d="m48.769531 189.796875-15.769531-2.75c-.9375 5.390625-1.710938 10.957031-2.289062 16.550781l15.921874 1.648438c.535157-5.222656 1.253907-10.425782 2.136719-15.449219zm0 0"/></svg>