<svg height="480pt" viewBox="0 -13 480 480" width="480pt" xmlns="http://www.w3.org/2000/svg"><path d="m0 293.65625h480v160h-480zm0 0" fill="#0093ba"/><path d="m404 301.65625c28.574219-73.363281 4.949219-156.777344-57.851562-204.261719-62.800782-47.484375-149.496094-47.484375-212.296876 0-62.800781 47.484375-86.425781 130.898438-57.851562 204.261719zm0 0" fill="#ffc117"/><path d="m312 333.65625-64 64h64zm0 0" fill="#ffc117"/><path d="m0 293.65625h16v16h-16zm0 0"/><path d="m64 325.65625h208v16h-208zm0 0"/><path d="m136 357.65625h112v16h-112zm0 0"/><path d="m336 389.65625h24v16h-24zm0 0"/><path d="m160 389.65625h64v16h-64zm0 0"/><path d="m408 325.65625h16v16h-16zm0 0"/><path d="m200 421.65625h80v16h-80zm0 0"/><path d="m104 357.65625h16v16h-16zm0 0"/><path d="m424 237.65625c.15625-72.660156-42.460938-138.605469-108.769531-168.3125-66.3125-29.707031-143.894531-17.613281-198.011719 30.875-54.117188 48.484375-74.632812 124.273438-52.363281 193.4375h-32.855469v16h448v-16h-64.855469c5.839844-18.09375 8.828125-36.988281 8.855469-56zm-352 0c-.132812-66.957031 39.503906-127.601562 100.886719-154.351562 61.382812-26.746094 132.789062-14.492188 181.738281 31.195312 48.953125 45.683594 66.101562 116.074219 43.648438 179.15625h-316.546876c-6.414062-17.972656-9.707031-36.914062-9.726562-56zm0 0"/><path d="m357.65625 43.3125 24-24-11.3125-11.3125-18.34375 18.34375-18.34375-18.34375-11.3125 11.3125 24 24c3.125 3.121094 8.1875 3.121094 11.3125 0zm0 0"/><path d="m34.34375 107.3125c3.125 3.121094 8.1875 3.121094 11.3125 0l24-24-11.3125-11.3125-18.34375 18.34375-18.34375-18.34375-11.3125 11.3125zm0 0"/><path d="m136 37.65625c2.121094 0 4.15625-.84375 5.65625-2.34375l24-24-11.3125-11.3125-18.34375 18.34375-18.34375-18.34375-11.3125 11.3125 24 24c1.5 1.5 3.535156 2.34375 5.65625 2.34375zm0 0"/><path d="m440 117.65625c2.121094 0 4.15625-.84375 5.65625-2.34375l24-24-11.3125-11.3125-18.34375 18.34375-18.34375-18.34375-11.3125 11.3125 24 24c1.5 1.5 3.535156 2.34375 5.65625 2.34375zm0 0"/><path d="m315.0625 326.265625c-2.988281-1.238281-6.429688-.554687-8.71875 1.734375l-64 64c-2.285156 2.289062-2.972656 5.726562-1.734375 8.71875 1.238281 2.988281 4.15625 4.9375 7.390625 4.9375h64c4.417969 0 8-3.582031 8-8v-64c0-3.234375-1.949219-6.152344-4.9375-7.390625zm-11.0625 63.390625h-36.6875l36.6875-36.6875zm0 0"/><path d="m336 357.65625h48v16h-48zm0 0"/><path d="m336 325.65625h56v16h-56zm0 0"/><path d="m383.015625 220.726562-15.886719 1.859376c.578125 5 .871094 10.035156.871094 15.070312h16c-.003906-5.65625-.332031-11.308594-.984375-16.929688zm0 0"/><path d="m256.9375 94.640625-1.875 15.886719c53.113281 6.378906 96.699219 45.03125 109.378906 97l15.550782-3.742188c-14.257813-58.476562-63.296876-101.96875-123.054688-109.144531zm0 0"/></svg>