<svg height="480pt" viewBox="0 -36 480 480" width="480pt" xmlns="http://www.w3.org/2000/svg"><path d="m232 400.015625h-176l-16-240h208zm0 0" fill="#ffc117"/><path d="m24 128.015625h240v32h-240zm0 0" fill="#ffc117"/><path d="m245.863281 192.015625 2.136719-32h-208l2.136719 32zm0 0" fill="#fdad2a"/><path d="m424 400.015625c14.925781.035156 27.882812-10.277344 31.203125-24.828125s-3.882813-29.457031-17.347656-35.902344c4.46875-11.28125 2.085937-24.128906-6.132813-33.058594-8.214844-8.929687-20.820312-12.375-32.433594-8.859374-2.910156-13.5-14.175781-23.597657-27.914062-25.007813 6.746094-10.445313 6.683594-23.886719-.15625-34.265625-6.84375-10.378906-19.171875-15.734375-31.425781-13.65625-7.574219-13.910156-24.304688-20.023438-39.066407-14.277344-5.273437-11.085937-16.453124-18.144531-28.726562-18.144531s-23.453125 7.058594-28.726562 18.144531c-14.761719-5.746094-31.492188.367188-39.066407 14.277344-12.152343-1.730469-24.214843 3.703125-30.972656 13.953125-6.757813 10.253906-6.992187 23.480469-.609375 33.96875-13.738281 1.410156-25.003906 11.507813-27.914062 25.007813-2.824219-.855469-5.757813-1.308594-8.710938-1.351563-10.523438-.070313-20.398438 5.074219-26.378906 13.734375-5.976563 8.664062-7.277344 19.722656-3.476563 29.535156-13.464843 6.445313-20.667969 21.351563-17.347656 35.902344s16.277344 24.863281 31.203125 24.828125zm0 0" fill="#a3783c"/><path d="m389.785156 116.671875-32.539062 42.679687-31.429688-5.96875-14.632812-51.632812zm0 0" fill="#ffc117"/><path d="m317.160156 70.308594 78.597656 14.921875-5.96875 31.4375-78.597656-14.921875zm0 0" fill="#e97424"/><path d="m305.71875 345c15.261719 2.757812 30.097656 7.503906 44.128906 14.109375 2.273438-4.839844 3.933594-9.945313 4.945313-15.199219l8.527343-44.945312-94.3125-17.933594-8.535156 44.941406c-.996094 5.273438-1.324218 10.648438-.976562 16 15.472656-1.003906 31.011718.011719 46.222656 3.027344zm0 0" fill="#ffc117"/><path d="m325.808594 153.382812 31.441406 5.96875-25.371094 133.613282-31.4375-5.96875zm0 0" fill="#fdad2a"/><path d="m0 392.015625h16v16h-16zm0 0"/><path d="m464 368.015625c.019531-12.902344-6.25-25.007813-16.800781-32.433594.519531-2.488281.789062-5.023437.800781-7.566406.035156-11.191406-4.636719-21.878906-12.867188-29.457031-8.234374-7.578125-19.273437-11.34375-30.421874-10.382813-4.253907-9.808593-12.277344-17.492187-22.261719-21.3125 1.03125-3.523437 1.554687-7.175781 1.550781-10.847656.085938-18.09375-12.09375-33.949219-29.601562-38.527344l10.402343-54.785156 31.390625-41.183594-.085937-.058593c.785156-.953126 1.335937-2.085938 1.597656-3.292969l5.96875-31.441407c.394531-2.089843-.058594-4.25-1.257813-6.003906-1.203124-1.753906-3.050781-2.960937-5.140624-3.347656l-78.601563-14.921875c-2.089844-.394531-4.25.058594-6.003906 1.261719-1.753907 1.199218-2.960938 3.050781-3.347657 5.140625l-5.96875 31.429687c-.203124 1.21875-.117187 2.46875.25 3.648438h-.082031l14.082031 49.808594-8.800781 46.511718c-1.457031.09375-2.90625.269532-4.34375.527344-11.363281-16.046875-32.757812-21.367188-50.3125-12.511719l1.335938-20.253906h8.519531c4.417969 0 8-3.582031 8-8v-32c0-4.417969-3.582031-8-8-8h-8.207031c5.292969-6.882813 8.175781-15.316406 8.207031-24-.019531-19.003906-13.386719-35.378906-32-39.203125 0-.277344 0-.542969 0-.796875.003906-13.175781-6.480469-25.507813-17.335938-32.972656-10.855468-7.46875-24.691406-9.109375-36.992187-4.386719-7.886719-12.554688-22.089844-19.691406-36.871094-18.535156-14.777343 1.160156-27.695312 10.425781-33.527343 24.054687-20.203126-1.761719-38.496094 11.953125-42.472657 31.839844-10.734375-.175781-21.09375 3.957031-28.757812 11.472656-7.667969 7.515625-12.003907 17.789063-12.042969 28.527344.03125 8.683594 2.914062 17.117187 8.207031 24h-8.207031c-4.417969 0-8 3.582031-8 8v32c0 4.417969 3.582031 8 8 8h8.519531l14.929688 224h-15.449219v16h448v-16h-24.207031c5.292969-6.882813 8.175781-15.316406 8.207031-24zm-117.054688-25.679687c-.40625 2.027343-.917968 4.03125-1.539062 6.007812-24.730469-9.960938-51.175781-14.984375-77.839844-14.785156.148438-2.054688.414063-4.097656.800782-6.121094l7.066406-37.046875 23.511718 4.449219h.039063l31.441406 5.972656h.253907l23.351562 4.417969zm-37.144531-61.714844 22.398438-117.886719 15.722656 2.984375-22.402344 117.878906zm44.078125-130.054688-21.71875-4.152344-9.761718-34.398437 53.167968 10.09375zm-30.398437-70.902344 62.878906 11.933594-2.984375 15.722656-62.878906-11.9375zm-283.480469 16.351563c0-13.257813 10.746094-24 24-24 2.054688.035156 4.097656.339844 6.070312.902344 2.457032.648437 5.070313.097656 7.050782-1.492188 1.980468-1.585937 3.089844-4.019531 2.992187-6.554687-.007812-.289063-.042969-.578125-.113281-.855469-.140625-7.5625 3.355469-14.730469 9.402344-19.277344 6.042968-4.542969 13.902344-5.910156 21.125-3.675781 2.132812.605469 4.417968.296875 6.316406-.847656 1.894531-1.144532 3.234375-3.023438 3.691406-5.191406 2.203125-10.527344 11.167969-18.289063 21.902344-18.960938 10.738281-.671875 20.597656 5.910156 24.097656 16.078125.820313 2.335937 2.671875 4.160156 5.019532 4.945313 2.347656.78125 4.925781.433593 6.980468-.945313 8.242188-5.78125 19.230469-5.75 27.4375.082031 8.203125 5.835938 11.847656 16.203125 9.089844 25.886719-.644531 2.453125-.089844 5.070313 1.496094 7.050781 1.570312 2.003906 4.019531 3.121094 6.5625 2.980469.296875.019531.597656-.023437.878906-.125 13.253906 0 24 10.742187 24 24 0 13.253906-10.746094 24-24 24h-160c-13.253906 0-24-10.746094-24-24zm-8 40h224v16h-224zm16.550781 32h190.890625l-2.183594 32.472656c-14.261718-1.902343-28.4375 4.035157-37.089843 15.527344h-.167969c-22.082031.023437-39.972656 17.917969-40 40-.003906 3.671875.519531 7.324219 1.550781 10.847656-9.984375 3.820313-18.007812 11.503907-22.261719 21.3125-11.15625-.984375-22.207031 2.773438-30.445312 10.359375-8.238281 7.582032-12.902344 18.28125-12.84375 29.480469.011719 2.542969.28125 5.078125.800781 7.566406-8.816406 6.199219-14.71875 15.730469-16.339843 26.382813-1.621094 10.652344 1.175781 21.507812 7.746093 30.050781h-24.726562zm71.449219 224c-11.195312.035156-20.917969-7.699219-23.398438-18.617187-2.484374-10.917969 2.9375-22.09375 13.046876-26.902344 3.753906-1.808594 5.496093-6.191406 4-10.082032-1.074219-2.671874-1.632813-5.519531-1.648438-8.398437 0-13.257813 10.746094-24 24-24 2.214844.042969 4.414062.398437 6.527344 1.054687 2.136718.605469 4.425781.296876 6.324218-.847656 1.902344-1.148437 3.238282-3.035156 3.691407-5.207031 2.195312-10.128906 10.660156-17.6875 20.96875-18.730469 2.710937-.296875 5.082031-1.953125 6.292969-4.398437 1.210937-2.441407 1.09375-5.335938-.308594-7.671875-2.261719-3.667969-3.472656-7.890625-3.496094-12.199219 0-13.257813 10.746094-24 24-24 .6875.023437 1.375.085937 2.054688.191406l1.320312.160157c3.195312.34375 6.285156-1.253907 7.847656-4.058594 5.675782-10.367188 18.144532-14.9375 29.175782-10.695313 3.890624 1.496094 8.277343-.246093 10.082031-4 3.925781-8.328125 12.308593-13.644531 21.519531-13.644531s17.59375 5.316406 21.519531 13.644531c1.804688 3.753907 6.191407 5.496094 10.082031 4 .65625-.246093 1.308594-.328125 1.964844-.519531l-11.488281 60.5625-23.558594-4.464844c-2.085937-.394531-4.246093.058594-6 1.261719-1.75 1.199219-2.957031 3.046875-3.34375 5.136719l-8.550781 44.824218c-.636719 3.394532-1.015625 6.828126-1.128906 10.28125-7.730469.78125-15.328125 2.535157-22.617188 5.222657l6.199219 14.753906c.25-.105469 25.355469-10.128906 69.152344-1.816406 43.800781 8.3125 63.472656 26.847656 63.640625 27l11.199218-11.417969c-5.773437-5.167969-12.183593-9.585938-19.070312-13.144531 1.132812-3.246094 2.035156-6.570313 2.703125-9.941407l8.554687-44.960937c.394532-2.089844-.058593-4.25-1.261718-6.003906-1.199219-1.753907-3.050782-2.960938-5.140625-3.347657l-23.597657-4.464843 10.117188-53.28125c9.925781 3.109375 16.667969 12.320312 16.625 22.722656-.023438 4.308594-1.234375 8.53125-3.503906 12.199219-1.40625 2.339844-1.519532 5.230468-.308594 7.675781 1.214844 2.441406 3.589844 4.101563 6.300781 4.394531 10.308594 1.042969 18.773438 8.601563 20.96875 18.730469.453125 2.171875 1.789063 4.058594 3.691407 5.207031 1.898437 1.144532 4.1875 1.453125 6.324218.847656 2.113282-.65625 4.3125-1.011718 6.527344-1.054687 13.253906 0 24 10.742187 24 24 0 2.875-.542969 5.722656-1.601562 8.398437-1.492188 3.890626.246093 8.273438 4 10.082032 10.121093 4.8125 15.539062 16.003906 13.042968 26.925781-2.492187 10.921875-12.238281 18.652344-23.441406 18.59375zm0 0"/><path d="m80 88.015625h16v16h-16zm0 0"/><path d="m128 336.015625h16v16h-16zm0 0"/><path d="m392 336.015625h16v16h-16zm0 0"/><path d="m264 360.015625h16v16h-16zm0 0"/><path d="m192 296.015625h16v16h-16zm0 0"/><path d="m184 360.015625h16v16h-16zm0 0"/><path d="m256 232.015625h16v16h-16zm0 0"/><path d="m136 48.015625h16v16h-16zm0 0"/><path d="m176 88.015625h16v16h-16zm0 0"/></svg>