<svg height="480pt" viewBox="-72 0 480 480" width="480pt" xmlns="http://www.w3.org/2000/svg"><path d="m264 472h-192l-32-32v-400l32-32h192l32 32v400zm0 0" fill="#ccdde6"/><path d="m40 40h256v400h-256zm0 0" fill="#ec4042"/><path d="m136 440s-56-48-56-120 96-120 96-192-56-88-56-88h88s48 16 48 88-96 120-96 192 80 120 80 120zm0 0" fill="#f79e9f"/><path d="m269.65625 477.65625 32-32c1.5-1.5 2.34375-3.535156 2.34375-5.65625v-400c0-2.121094-.84375-4.15625-2.34375-5.65625l-32-32c-1.5-1.5-3.535156-2.34375-5.65625-2.34375h-192c-2.121094 0-4.15625.84375-5.65625 2.34375l-32 32c-1.5 1.5-2.34375 3.535156-2.34375 5.65625v400c0 2.121094.84375 4.15625 2.34375 5.65625l32 32c1.5 1.5 3.535156 2.34375 5.65625 2.34375h192c2.121094 0 4.15625-.84375 5.65625-2.34375zm-150.945312-429.65625c6.59375 2.289062 49.289062 19.511719 49.289062 80 0 33.191406-22.464844 61.273438-46.246094 91-24.464844 30.601562-49.753906 62.191406-49.753906 101 1.121094 41.515625 17.085938 81.25 45 112h-69v-384zm20.402343 384c-9.707031-9.222656-51.113281-52.0625-51.113281-112 0-33.191406 22.464844-61.273438 46.246094-91 24.464844-30.601562 49.753906-62.191406 49.753906-101 0-41.808594-17.960938-66.257812-34.519531-80h57.015625c6.257812 2.617188 41.503906 20 41.503906 80 0 33.191406-22.464844 61.273438-46.246094 91-24.464844 30.601562-49.753906 62.191406-49.753906 101 0 52.222656 38.335938 91.808594 63.199219 112zm103.199219 0c-11.039062-7.160156-74.3125-50.808594-74.3125-112 0-33.191406 22.464844-61.273438 46.246094-91 24.464844-30.601562 49.753906-62.191406 49.753906-101 0-42.03125-15.320312-66.398438-29.601562-80h53.601562v384zm-167-416h185.375l16 16h-217.375zm0 448-16-16h217.375l-16 16zm0 0"/><path d="m64 400h16v16h-16zm0 0"/><path d="m256 400h16v16h-16zm0 0"/><path d="m320 408h16v16h-16zm0 0"/><path d="m320 200h16v192h-16zm0 0"/><path d="m0 48h16v192h-16zm0 0"/></svg>