<svg height="433pt" viewBox="0 0 433.352 433" width="433pt" xmlns="http://www.w3.org/2000/svg"><path d="m289.496094 422.570312c-32.164063-7.832031-52.648438-39.375-46.71875-71.945312l8.796875-48.253906c3.367187-18.480469 5.082031-37.21875 5.121093-56l.167969-86.808594c.054688-27.457031 13.882813-53.050781 36.8125-68.152344 22.929688-15.101562 51.902344-17.691406 77.148438-6.894531 37.449219 16.011719 57.414062 57.132813 46.832031 96.460937l-52.992188 197.089844c-8.816406 32.785156-42.183593 52.542969-75.167968 44.503906zm0 0" fill="#8ac03f"/><path d="m147.207031 352.808594c32.160157-7.839844 52.640625-39.382813 46.714844-71.949219l-8.800781-48.25c-3.367188-18.476563-5.082032-37.21875-5.121094-56l-.175781-86.757813c-.042969-27.460937-13.863281-53.0625-36.789063-68.171874-22.925781-15.109376-51.90625-17.707032-77.15625-6.917969-37.457031 16.011719-57.425781 57.144531-46.832031 96.480469l52.992187 197.054687c8.816407 32.785156 42.183594 52.546875 75.167969 44.511719zm0 0" fill="#8ac03f"/><path d="m380.257812 62.480469c15.859376 6.816406 29.808594 17.417969 40.613282 30.882812l12.480468-10c-20.417968-25.488281-50.246093-41.667969-82.742187-44.894531-32.5-3.222656-64.925781 6.78125-89.953125 27.757812l10.273438 12.273438c30.621093-25.273438 72.742187-31.445312 109.328124-16.019531zm0 0"/><path d="m287.601562 430.347656c5.574219 1.363282 11.296876 2.054688 17.039063 2.0625 31.835937 0 59.667969-21.46875 67.75-52.265625l52.992187-197.0625c9.070313-33.691406-2.195312-69.585937-28.890624-92.054687-26.695313-22.464844-63.988282-27.433594-95.632813-12.742188-31.648437 14.691406-51.917969 46.386719-51.988281 81.277344l-.183594 86.777344c-.046875 18.308594-1.714844 36.582031-4.984375 54.597656l-8.773437 48.226562c-6.679688 36.730469 16.40625 72.308594 52.671874 81.183594zm-36.953124-78.289062 8.800781-48.257813c3.445312-18.949219 5.203125-38.167969 5.246093-57.429687l.183594-86.761719c.066406-28.664063 16.726563-54.695313 42.726563-66.761719s56.632812-7.988281 78.570312 10.464844c21.933594 18.453125 31.199219 47.9375 23.761719 75.617188l-53 197.054687c-7.589844 28.238281-36.101562 45.464844-64.628906 39.042969-28.523438-6.421875-46.90625-34.203125-41.660156-62.96875zm0 0"/><path d="m303.558594 189.164062c3.039062-17.414062 19.613281-29.0625 37.027344-26.027343 17.410156 3.039062 29.058593 19.613281 26.023437 37.027343l-8.25 47.316407 15.769531 2.753906 8.246094-47.289063c4-23.058593-9.21875-45.640624-31.277344-53.445312l4.238282-24.320312-15.769532-2.753907-4.230468 24.335938c-23.421876-.152344-43.523438 16.644531-47.535157 39.71875l-8.25 47.28125 15.761719 2.753906zm0 0"/><path d="m84.472656 382.667969 7.496094-14.136719c-21.214844-11.269531-36.816406-30.816406-43.097656-54l-33.414063-124.25-15.457031 4.160156 33.414062 124.25c7.445313 27.464844 25.929688 50.621094 51.058594 63.976563zm0 0"/><path d="m101.839844 389.960938c5.664062 1.78125 11.472656 3.058593 17.359375 3.824218l2.058593-15.871094c-4.964843-.640624-9.863281-1.710937-14.640624-3.199218zm0 0"/><path d="m64.3125 310.378906c8.085938 30.792969 35.914062 52.261719 67.75 52.261719 5.742188-.003906 11.464844-.699219 17.042969-2.0625 36.253906-8.867187 59.339843-44.425781 52.6875-81.152344l-8.800781-48.246093c-3.269532-18.019532-4.9375-36.296876-4.984376-54.609376l-.175781-86.761718c-.066406-34.890625-20.335937-66.585938-51.980469-81.28125-31.648437-14.695313-68.941406-9.726563-95.640624 12.738281-26.695313 22.46875-37.960938 58.363281-28.890626 92.054687zm4.710938-288.242187c22.777343-9.734375 48.914062-7.394531 69.601562 6.226562 20.683594 13.621094 33.160156 36.710938 33.214844 61.480469l.175781 86.757812c.046875 19.265626 1.800781 38.488282 5.25 57.441407l8.796875 48.246093c5.246094 28.765626-13.132812 56.546876-41.660156 62.96875-28.527344 6.421876-57.039063-10.800781-64.625-39.039062l-53-197.054688c-9.382813-35.46875 8.578125-72.460937 42.246094-87.027343zm0 0"/><path d="m62.574219 180.464844 15.769531-2.75-8.214844-47.28125c-3.039062-17.410156 8.613282-33.984375 26.023438-37.023438 17.410156-3.039062 33.984375 8.613282 37.023437 26.023438l8.25 47.28125 15.765625-2.746094-8.289062-47.285156c-4-23.078125-24.105469-39.878906-47.527344-39.714844l-4.238281-24.300781-15.769531 2.742187 4.257812 24.375c-22.109375 7.714844-35.363281 30.320313-31.296875 53.378906zm0 0"/></svg>