<svg height="480pt" viewBox="0 0 480 480.01391" width="480pt" xmlns="http://www.w3.org/2000/svg"><path d="m184.003906 328.015625 48-288h-224l48 288zm0 0" fill="#ffe900"/><path d="m160.003906 278.132812v-38.117187c0-22.09375-17.910156-40-40-40-22.09375 0-40 17.90625-40 40v38.117187c-15.164062 12.117188-23.996094 30.472657-24 49.882813v45.734375c-.453125 34.230469 25.523438 63.039062 59.617188 66.121094 17.6875 1.191406 35.082031-4.996094 48.039062-17.097656 12.957032-12.101563 20.324219-29.03125 20.34375-46.757813v-48c-.007812-19.410156-8.835937-37.765625-24-49.882813zm0 0" fill="#354f5b"/><path d="m120.003906 296.015625c17.671875 0 32 14.324219 32 32v48c0 17.671875-14.328125 32-32 32s-32-14.328125-32-32v-48c0-17.675781 14.328125-32 32-32zm0 0" fill="#7a8c9c"/><path d="m296.003906 152.015625-48 288h224l-48-288zm0 0" fill="#ffe900"/><path d="m320.003906 201.894531v38.121094c0 22.089844 17.90625 40 40 40 22.089844 0 40-17.910156 40-40v-38.121094c15.164063-12.117187 23.992188-30.472656 24-49.878906v-45.738281c.453125-34.230469-25.523437-63.039063-59.617187-66.121094-17.6875-1.191406-35.082031 5-48.039063 17.097656-12.960937 12.101563-20.324218 29.03125-20.34375 46.761719v48c.003906 19.40625 8.835938 37.761719 24 49.878906zm0 0" fill="#354f5b"/><path d="m360.003906 184.015625c-17.671875 0-32-14.328125-32-32v-48c0-17.675781 14.328125-32 32-32s32 14.324219 32 32v48c0 17.671875-14.328125 32-32 32zm0 0" fill="#7a8c9c"/><path d="m182.210938 438.214844c-1.3125 1.3125-2.65625 2.582031-4 3.800781l10.585937 12c1.628906-1.441406 3.230469-2.9375 4.796875-4.488281 3.980469-3.972656 7.640625-8.253906 10.945312-12.800782l-12.96875-9.375c-2.824218 3.863282-5.953124 7.496094-9.359374 10.863282zm0 0"/><path d="m114.011719 463.8125c-46.71875-3.875-82.507813-43.179688-82.007813-90.054688v-21.742187h-16v21.742187c-.480468 55.289063 41.824219 101.558594 96.933594 106.023438 2.371094.15625 4.722656.234375 7.066406.234375 18.253906.011719 36.191406-4.785156 52-13.914063l-8-13.847656c-15.128906 8.773438-32.546875 12.800782-49.992187 11.558594zm0 0"/><path d="m120.003906 288.015625c-22.082031.023437-39.972656 17.917969-40 40v48c0 22.089844 17.90625 40 40 40 22.089844 0 40-17.910156 40-40v-48c-.027344-22.082031-17.921875-39.976563-40-40zm24 88c0 13.253906-10.746094 24-24 24s-24-10.746094-24-24v-48c0-13.257813 10.746094-24 24-24s24 10.742187 24 24zm0 0"/><path d="m232.003906 32.015625h-224c-2.351562 0-4.582031 1.035156-6.101562 2.828125-1.519532 1.792969-2.171875 4.164062-1.785156 6.480469l47.886718 287.34375v45.089843c-.519531 38.460938 28.753906 70.792969 67.078125 74.089844 1.679688.109375 3.347657.167969 5 .167969 18.238281.039063 35.796875-6.90625 49.066407-19.417969 14.542968-13.625 22.8125-32.652344 22.855468-52.582031v-47.347656l47.886719-287.34375c.386719-2.316407-.265625-4.6875-1.785156-6.480469s-3.75-2.828125-6.101563-2.828125zm-56 344c-.039062 15.5-6.472656 30.296875-17.785156 40.894531-11.316406 10.640625-26.566406 16.066406-42.0625 14.96875-29.933594-2.710937-52.691406-28.074218-52.152344-58.121094v-45.742187c-.007812-16.992187 7.726563-33.0625 21.015625-43.648437 1.886719-1.519532 2.984375-3.8125 2.984375-6.234376v-38.117187c0-17.675781 14.328125-32 32-32s32 14.324219 32 32v38.117187c0 2.421876 1.097656 4.714844 2.984375 6.234376 13.285157 10.585937 21.023438 26.65625 21.015625 43.648437zm5.984375-84.546875c-3.761719-6.367188-8.476562-12.121094-13.984375-17.054688v-34.398437c0-26.511719-21.492187-48-48-48-26.511718 0-48 21.488281-48 48v34.398437c-5.507812 4.929688-10.222656 10.675782-13.984375 17.039063l-40.566406-243.4375h31.773437l16.226563 97.308594 15.773437-2.621094-15.785156-94.6875h46.5625v96h16v-96h46.558594l-15.785156 94.6875 15.777344 2.621094 16.222656-97.308594h31.777344zm0 0"/><path d="m112.003906 256.015625h16v16h-16zm0 0"/><path d="m464.003906 128.015625v-21.746094c.476563-55.289062-41.828125-101.558593-96.9375-106.023437-20.609375-1.421875-41.175781 3.339844-59.0625 13.679687l8 13.847657c15.113282-8.796876 32.53125-12.828126 49.976563-11.558594 46.722656 3.867187 82.523437 43.171875 82.023437 90.054687v21.746094zm0 0"/><path d="m432.003906 106.269531c.519532-38.460937-28.757812-70.792969-67.082031-74.085937-19.921875-1.441406-39.53125 5.542968-54.0625 19.246094-14.542969 13.625-22.816406 32.652343-22.855469 52.585937v47.34375l-47.886718 287.34375c-.386719 2.316406.265624 4.6875 1.785156 6.480469 1.519531 1.792968 3.75 2.828125 6.101562 2.832031h224c2.351563-.003906 4.582032-1.039063 6.101563-2.832031 1.519531-1.792969 2.171875-4.164063 1.785156-6.480469l-47.886719-287.34375zm-128-2.253906c.035156-15.503906 6.472656-30.300781 17.785156-40.898437 10.332032-9.742188 24.011719-15.148438 38.214844-15.101563 1.289063 0 2.582032.046875 3.886719.132813 29.914063 2.730468 52.652344 28.085937 52.113281 58.121093v45.746094c.007813 16.988281-7.730468 33.058594-21.015625 43.644531-1.886719 1.519532-2.984375 3.8125-2.984375 6.234375v38.121094c0 17.671875-14.328125 32-32 32s-32-14.328125-32-32v-38.121094c0-2.421875-1.097656-4.714843-2.984375-6.234375-13.289062-10.585937-21.023437-26.65625-21.015625-43.644531zm126.773438 328-16.222656-97.3125-15.777344 2.621094 15.785156 94.691406h-46.558594v-96h-16v96h-46.5625l15.785156-94.691406-15.773437-2.621094-16.226563 97.3125h-31.773437l40.566406-243.457031c3.761719 6.367187 8.476563 12.121094 13.984375 17.054687v34.402344c0 26.507813 21.488282 48 48 48 26.507813 0 48-21.492187 48-48v-34.402344c5.503906-4.929687 10.222656-10.675781 13.984375-17.039062l40.566407 243.441406zm0 0"/><path d="m360.003906 192.015625c22.078125-.027344 39.972656-17.921875 40-40v-48c0-22.09375-17.910156-40-40-40-22.09375 0-40 17.90625-40 40v48c.027344 22.078125 17.917969 39.972656 40 40zm-24-88c0-13.257813 10.746094-24 24-24s24 10.742187 24 24v48c0 13.253906-10.746094 24-24 24s-24-10.746094-24-24zm0 0"/><path d="m352.003906 208.015625h16v16h-16zm0 0"/></svg>