<svg height="480pt" viewBox="0 0 480 480.0017" width="480pt" xmlns="http://www.w3.org/2000/svg"><path d="m472 8v336c-.023438 64.507812-48.003906 118.933594-112 127.042969-5.308594.640625-10.652344.960937-16 .957031h-168c-13.253906 0-24-10.742188-24-24 0-13.253906 10.746094-24 24-24h168c21.226562.023438 41.585938-8.394531 56.59375-23.402344 15.007812-15.007812 23.429688-35.371094 23.40625-56.597656v-312zm0 0" fill="#0093ba"/><path d="m8 208h48v48h-48zm0 0" fill="#fdad2a"/><path d="m424 208h48v48h-48zm0 0" fill="#fdad2a"/><path d="m320 224v106.722656c0 7.332032-5.945312 13.277344-13.277344 13.277344-26.835937.046875-51.902344-13.386719-66.722656-35.757812-14.800781 22.351562-39.832031 35.785156-66.640625 35.757812h-.078125c-7.335938 0-13.28125-5.945312-13.28125-13.277344v-106.722656zm0 0" fill="#56636e"/><path d="m306.695312 312c-19.382812.003906-36.867187-11.648438-44.320312-29.542969l-11.277344-27.054687c-1.863281-4.484375-6.242187-7.40625-11.097656-7.402344-4.855469-.003906-9.234375 2.917969-11.09375 7.402344l-11.304688 27.0625c-7.449218 17.878906-24.914062 29.527344-44.28125 29.535156h-77.320312c-26.507812 0-48-21.488281-48-48v-64c0-26.507812 21.492188-48 48-48h288c26.511719 0 48 21.492188 48 48v64c0 26.511719-21.488281 48-48 48zm0 0" fill="#ffc117"/><path d="m173.320312 280h-77.320312c-8.835938 0-16-7.160156-16-16v-64c0-8.835938 7.164062-16 16-16h104c5.351562.003906 10.34375 2.675781 13.3125 7.125 2.964844 4.453125 3.511719 10.089844 1.457031 15.027344l-26.664062 64c-2.488281 5.96875-8.320313 9.855468-14.785157 9.847656zm0 0" fill="#0093ba"/><path d="m400 200v64c0 8.839844-7.164062 16-16 16h-77.277344c-.886718 0-1.769531-.078125-2.640625-.238281-5.433593-.90625-10.019531-4.527344-12.160156-9.601563l-26.640625-64c-2.058594-4.929687-1.515625-10.5625 1.4375-15.011718 2.957031-4.449219 7.941406-7.132813 13.28125-7.148438h104c8.835938 0 16 7.164062 16 16zm0 0" fill="#0093ba"/><path d="m360 422.402344v48.640625c-5.308594.640625-10.652344.960937-16 .957031h-16v-48h16c5.375.003906 10.734375-.53125 16-1.597656zm0 0" fill="#ffc117"/><path d="m104 280 40-96h40l-40 96zm0 0" fill="#7ecde7"/><path d="m384 184-40 96h-37.277344c-.886718 0-1.769531-.078125-2.640625-.238281l39.917969-95.761719zm0 0" fill="#7ecde7"/><path d="m184 392c0 30.929688 25.074219 56 56 56 30.929688 0 56-25.070312 56-56h-32c0 13.257812-10.746094 24-24 24s-24-10.742188-24-24zm0 0" fill="#ffc117"/><path d="m424 32v40l48-24v-40zm0 0" fill="#fdad2a"/><path d="m117.167969 198.546875c-4.6875-4.6875-13.550781-3.417969-19.800781 2.828125-6.246094 6.25-7.511719 15.113281-2.828126 19.800781 4.6875 4.683594 13.550782 3.417969 19.800782-2.828125 6.25-6.25 7.515625-15.113281 2.828125-19.800781zm0 0" fill="#e9f1f2"/><path d="m309.171875 198.542969c-4.6875-4.6875-13.550781-3.421875-19.796875 2.828125-6.25 6.25-7.515625 15.113281-2.828125 19.800781 4.683594 4.683594 13.550781 3.417969 19.796875-2.832031 6.25-6.246094 7.515625-15.109375 2.828125-19.796875zm0 0" fill="#e9f1f2"/><path d="m200 176h-104c-13.253906 0-24 10.746094-24 24v64c0 13.257812 10.746094 24 24 24h77.335938c9.695312.019531 18.441406-5.8125 22.152343-14.765625l26.664063-64c3.085937-7.40625 2.269531-15.867187-2.183594-22.542969-4.449219-6.679687-11.945312-10.6875-19.96875-10.691406zm7.386719 27.074219-26.664063 64c-1.246094 2.980469-4.15625 4.917969-7.386718 4.917969h-77.335938c-4.417969 0-8-3.582032-8-8v-63.992188c0-4.417969 3.582031-8 8-8h104c2.675781.003906 5.171875 1.339844 6.652344 3.5625 1.484375 2.226562 1.757812 5.042969.734375 7.511719zm0 0"/><path d="m384 176h-104c-8.023438.003906-15.515625 4.011719-19.96875 10.691406-4.449219 6.675782-5.269531 15.136719-2.183594 22.542969l26.664063 64c3.714843 8.960937 12.46875 14.792969 22.167969 14.765625h77.320312c13.253906 0 24-10.742188 24-24v-64c0-13.253906-10.746094-24-24-24zm8 88c0 4.421875-3.582031 8-8 8h-77.320312c-3.230469 0-6.140626-1.945312-7.382813-4.925781l-26.664063-64c-1.027343-2.464844-.753906-5.28125.726563-7.503907 1.480469-2.222656 3.972656-3.5625 6.640625-3.570312h104c4.417969 0 8 3.582031 8 8zm0 0"/><path d="m476.199219 1.195312c-2.355469-1.457031-5.296875-1.589843-7.773438-.355468l-48 24c-2.714843 1.355468-4.425781 4.128906-4.425781 7.160156v112h16v-67.054688l32-16v139.054688h-24c-.035156-30.910156-25.085938-55.964844-56-56h-288c-30.914062.035156-55.964844 25.089844-56 56h-32c-4.417969 0-8 3.582031-8 8v48c0 4.421875 3.582031 8 8 8h32c.035156 30.914062 25.085938 55.964844 56 56h56v10.722656c.023438 11.773438 9.585938 21.300782 21.359375 21.277344 25.605469.039062 49.949219-11.113281 66.640625-30.527344 16.722656 19.425782 41.09375 30.574219 66.722656 30.527344 11.746094-.011719 21.265625-9.53125 21.277344-21.277344v-10.722656h56c30.914062-.035156 55.964844-25.085938 56-56h24v80c-.066406 57.007812-40.160156 106.125-96 117.601562v-33.007812c37.820312-10.757812 63.933594-45.273438 64-84.59375v-24h-16v24c-.042969 39.746094-32.253906 71.957031-72 72h-44.710938c3.109376-7.617188 4.710938-15.769531 4.710938-24 0-4.417969-3.582031-8-8-8h-32c-4.417969 0-8 3.582031-8 8 0 8.839844-7.164062 16-16 16s-16-7.160156-16-16c0-4.417969-3.582031-8-8-8h-32c-4.417969 0-8 3.582031-8 8 .003906 8.230469 1.601562 16.382812 4.710938 24h-4.710938c-17.671875 0-32 14.328125-32 32 0 17.675781 14.328125 32 32 32h168c75.078125-.082031 135.917969-60.921875 136-136v-336c0-2.773438-1.4375-5.347656-3.800781-6.804688zm-267.183594 398.804688c3.648437 14.128906 16.394531 24.003906 30.984375 24.003906 14.59375 0 27.335938-9.875 30.984375-24.003906h16.351563c-3.882813 23.117188-23.894532 40.046875-47.335938 40.046875-23.4375 0-43.449219-16.929687-47.335938-40.046875zm-49.015625 48c0-8.835938 7.164062-16 16-16h14.121094c12.113281 15.171875 30.46875 24.003906 49.878906 24.003906s37.769531-8.832031 49.878906-24.003906h30.121094v32h-144c-8.835938 0-16-7.160156-16-16zm176 16v-32h8c2.703125 0 5.359375-.167969 8-.40625v32c-2.65625.175781-5.296875.40625-8 .40625zm96-404.941406v-22.113282l32-16v22.113282zm-416 188.941406v-32h24v32zm296 82.722656c-.003906 2.914063-2.363281 5.273438-5.277344 5.277344-24.15625.046875-46.71875-12.046875-60.058594-32.183594-1.5625-2.109375-4.035156-3.355468-6.664062-3.355468-2.625 0-5.097656 1.246093-6.664062 3.355468-13.332032 20.144532-35.898438 32.238282-60.054688 32.183594-2.914062-.003906-5.277344-2.363281-5.28125-5.277344v-10.722656h5.320312c22.621094.042969 43.03125-13.566406 51.6875-34.460938l11.273438-27.058593c.722656-1.386719 2.15625-2.257813 3.71875-2.257813 1.566406 0 3 .871094 3.722656 2.257813l11.269532 27.058593c8.664062 20.898438 29.082031 34.503907 51.703124 34.460938h5.304688zm72-26.722656h-77.304688c-16.160156.027344-30.742187-9.691406-36.933593-24.621094l-11.273438-27.058594c-3.089843-7.484374-10.386719-12.371093-18.488281-12.371093-8.097656 0-15.398438 4.886719-18.488281 12.371093l-11.269531 27.066407c-6.191407 14.921875-20.765626 24.640625-36.921876 24.613281h-77.320312c-22.078125-.023438-39.972656-17.917969-40-40v-64c.027344-22.078125 17.921875-39.972656 40-40h288c22.082031.027344 39.972656 17.921875 40 40v64c-.027344 22.082031-17.917969 39.976562-40 40zm56-56v-32h24v32zm0 0"/><path d="m152 112h208v16h-208zm0 0"/><path d="m120 112h16v16h-16zm0 0"/></svg>