<svg height="479pt" viewBox="-95 0 479 479.99516" width="479pt" xmlns="http://www.w3.org/2000/svg"><path d="m232.496094 128v224c0 13.253906-10.742188 24-24 24h-144c-13.253906 0-24-10.746094-24-24v-224zm0 0" fill="#ec4042"/><path d="m40.496094 240h192v64h-192zm0 0" fill="#ffe900"/><path d="m40.496094 128h192v112h-192zm0 0" fill="#ffc117"/><path d="m232.496094 264c-8.835938 0-16-7.164062-16-16v-48c0-8.835938-7.160156-16-16-16-8.835938 0-16 7.164062-16 16v32c0 8.835938-7.160156 16-16 16-8.835938 0-16-7.164062-16-16v-48c0-8.835938-7.160156-16-16-16-8.835938 0-16 7.164062-16 16v8c0 8.835938-7.160156 16-16 16-8.835938 0-16-7.164062-16-16v-16c0-8.835938-7.160156-16-16-16h-32c-8.835938 0-16-7.164062-16-16v-24c0-61.855469 50.144531-112 112-112 61.855468 0 112 50.144531 112 112v128c0 8.835938-7.160156 16-16 16zm0 0" fill="#8ac03f"/><path d="m136.496094 472c-6.175782 0-12.066406-2.585938-16.25-7.132812-4.179688-4.542969-6.269532-10.632813-5.757813-16.789063l6.007813-72.078125h32l6.007812 72.078125c.515625 6.15625-1.574218 12.246094-5.753906 16.789063-4.183594 4.546874-10.078125 7.132812-16.253906 7.132812zm0 0" fill="#a3783c"/><path d="m272.496094 168h16v16h-16zm0 0"/><path d="m272.496094 152h16v-32c.132812-41.5-16.859375-81.21875-46.964844-109.785156l-11.066406 11.570312c26.941406 25.550782 42.148437 61.085938 42.03125 98.214844zm0 0"/><path d="m32.496094 166.527344v185.472656c0 17.671875 14.328125 32 32 32h47.3125l-5.285156 63.414062c-.945313 11.308594 4.554687 22.179688 14.21875 28.125 9.664062 5.941407 21.847656 5.941407 31.511718 0 9.664063-5.945312 15.164063-16.816406 14.21875-28.125l-5.285156-63.414062h47.308594c17.675781 0 32-14.328125 32-32v-81.472656c9.554687-3.378906 15.960937-12.394532 16-22.527344v-128c0-66.273438-53.722656-120-120-120-66.273438 0-120 53.726562-120 120v24c.042968 10.132812 6.445312 19.148438 16 22.527344zm72 49.472656c13.257812 0 24-10.746094 24-24v-8c0-4.417969 3.582031-8 8-8 4.417968 0 8 3.582031 8 8v48c0 13.253906 10.746094 24 24 24 13.257812 0 24-10.746094 24-24v-32c0-4.417969 3.582031-8 8-8 4.417968 0 8 3.582031 8 8v48c.042968 10.132812 6.445312 19.148438 16 22.527344v25.472656h-176v-48h80v-16h-80v-64h24c4.417968 0 8 3.582031 8 8v16c0 13.253906 10.746094 24 24 24zm46.042968 232.742188c.34375 3.933593-.996093 7.824218-3.679687 10.714843-2.714844 2.808594-6.453125 4.398438-10.363281 4.398438-3.90625 0-7.644532-1.589844-10.359375-4.398438-2.6875-2.890625-4.023438-6.78125-3.679688-10.714843l5.402344-64.742188h17.277344zm57.957032-80.742188h-144c-8.835938 0-16-7.164062-16-16v-40h176v40c0 8.835938-7.160156 16-16 16zm-176-248c0-57.4375 46.5625-104 104-104s104 46.5625 104 104v128c0 4.417969-3.582032 8-8 8-4.417969 0-8-3.582031-8-8v-48c0-13.253906-10.742188-24-24-24-13.253906 0-24 10.746094-24 24v32c0 4.417969-3.582032 8-8 8-4.417969 0-8-3.582031-8-8v-48c0-13.253906-10.742188-24-24-24-13.253906 0-24 10.746094-24 24v8c0 4.417969-3.582032 8-8 8-4.417969 0-8-3.582031-8-8v-16c0-13.253906-10.742188-24-24-24h-32c-4.417969 0-8-3.582031-8-8zm0 0"/><path d="m.496094 184h16v128h-16zm0 0"/></svg>