<svg height="480pt" viewBox="0 0 480 480" width="480pt" xmlns="http://www.w3.org/2000/svg"><path d="m0 0h480v304h-480zm0 0" fill="#e97424"/><path d="m456 264c.03125-41.078125-24.117188-78.324219-61.632812-95.058594-37.511719-16.738281-81.363282-9.820312-111.90625 17.644532-30.546876 27.46875-42.0625 70.339843-29.390626 109.414062h197.859376c3.355468-10.335938 5.066406-21.132812 5.070312-32zm0 0" fill="#ffc117"/><path d="m0 288h480v144h-480zm0 0" fill="#0093ba"/><path d="m480 416h-188.800781c-33.148438-.007812-65.3125-11.292969-91.199219-32s-58.050781-31.992188-91.199219-32h-108.800781v128h480zm0 0" fill="#8d6339"/><path d="m209.359375 157.839844c-1.273437 5.347656-2.875 10.609375-4.800781 15.761718-8.796875 23.296876-24.621094 43.285157-45.277344 57.199219-8.363281 5.742188-17.421875 10.390625-26.960938 13.839844l-16.320312 5.917969h-.078125l-17.042969 6.242187-7.277344 2.640625c-14.332031 5.28125-24.699218 17.878906-27.121093 32.957032-.324219 2.199218-.484375 4.417968-.480469 6.640624v100.960938h-40v-100.800781c-.007812-5.207031.472656-10.402344 1.441406-15.519531 4.40625-23.851563 19.214844-44.5 40.398438-56.320313 3.890625-2.175781 7.960937-4.023437 12.160156-5.519531l4-1.441406 36.640625-13.359376c2.210937-.773437 4.375-1.683593 6.480469-2.71875 5.214844-2.382812 10.152344-5.335937 14.71875-8.800781 13.734375-10.425781 23.90625-24.84375 29.121094-41.28125 2.433593-7.820312 3.675781-15.964843 3.679687-24.160156-.003906-2.859375-.164063-5.714844-.480469-8.558594l-.800781-9.917969 39.761719-6.480468.800781 12.238281c1.410156 13.542969.542969 27.226563-2.5625 40.480469zm0 0" fill="#a3783c"/><g fill="#8ac03f"><path d="m192.679688 111.511719 72.207031-94.496094s-44.886719-8.214844-70.375 22.074219c-25.488281 30.285156-1.832031 72.421875-1.832031 72.421875zm0 0"/><path d="m93.527344 177.96875 98.746094-66.296875s-39.847657-22.183594-73.738282-1.695313c-33.886718 20.488282-25.007812 67.992188-25.007812 67.992188zm0 0"/><path d="m78.921875 75.785156 113.40625 35.816406s-7.519531-44.984374-44.671875-58.691406c-37.152344-13.703125-68.734375 22.875-68.734375 22.875zm0 0"/><path d="m192.273438 111.671875 115.917968 26.585937s-11.113281-44.234374-49.246094-54.914062c-38.136718-10.679688-66.671874 28.328125-66.671874 28.328125zm0 0"/></g><path d="m248 320h176v16h-176zm0 0"/><path d="m288 352h112v16h-112zm0 0"/><path d="m440 320h16v16h-16zm0 0"/><path d="m205 377.753906c-27.328125-21.808594-61.238281-33.707031-96.199219-33.753906h-36.800781v-45.007812c-.03125-14.335938 8.925781-27.15625 22.398438-32.054688l40.664062-14.777344c52.644531-19.105468 87.089844-69.832031 85.433594-125.808594l85.902344 19.695313c2.714843.621094 5.558593-.210937 7.503906-2.203125 1.949218-1.988281 2.722656-4.847656 2.042968-7.546875-.496093-1.984375-12.738281-48.855469-54.847656-60.65625-10.097656-2.84375-20.78125-2.871094-30.890625-.074219l41.03125-53.695312c1.6875-2.210938 2.105469-5.140625 1.101563-7.734375-1.003906-2.597657-3.285156-4.484375-6.019532-4.984375-2.023437-.359375-49.746093-8.664063-77.929687 24.800781-6.714844 7.9375-11.140625 17.558594-12.796875 27.824219-7.078125-7.261719-15.683594-12.855469-25.195312-16.378906-41.878907-15.4375-76.109376 23.488281-77.558594 25.152343-1.757813 2.039063-2.375 4.824219-1.640625 7.414063.734375 2.585937 2.722656 4.632812 5.289062 5.441406l47.511719 14.992188c-3.335938 1.3125-6.558594 2.890624-9.640625 4.722656-38.191406 23.070312-29.128906 74.136718-28.726563 76.304687.5 2.648438 2.304688 4.871094 4.800782 5.902344.976562.414063 2.027344.625 3.085937.625 1.589844 0 3.144531-.472656 4.464844-1.359375l65.863281-44.21875c-3.816406 27.078125-22.285156 49.832031-48 59.136719l-40.648437 14.800781c-35.632813 13.015625-59.296875 46.953125-59.199219 84.886719v44.800781h-16v16h16v40h16v-45.390625l24 4.132813v41.257812h16v-40h36.800781c31.335938.042969 61.730469 10.707031 86.222657 30.246094 27.320312 21.800781 61.222656 33.699218 96.175781 33.753906h188.800781v-16h-188.800781c-31.324219-.046875-61.710938-10.710938-86.199219-30.246094zm51.800781-286.707031c17.429688 5.953125 31.480469 19.078125 38.605469 36.066406l-87.902344-20.160156c10.191406-9.449219 28.335938-21.785156 49.296875-15.90625zm-56.160156-46.800781c12.632813-13.394532 30.394531-20.746094 48.800781-20.199219l-53.746094 70.351563c-.976562-2.621094-2.152343-5.421876-3.535156-8.359376-3.828125-14.488281-.699218-29.9375 8.472656-41.792968zm-55.761719 16.167968c14.195313 5.8125 25.621094 16.847657 31.921875 30.832032.496094 2.1875 1.03125 4.296875 1.597657 6.257812-4.730469-1.425781-9.558594-2.511718-14.445313-3.246094l-69.472656-21.953124c10.917969-8.59375 30.015625-19.425782 50.398437-11.890626zm-22.207031 56.386719c8.554687-5.058593 18.34375-7.648437 28.28125-7.488281 3.425781.019531 6.84375.289062 10.230469.800781l12.929687 4.078125-73.601562 49.410156c.105469-13.859374 3.542969-35.53125 22.160156-46.800781zm71.199219 3.414063 10.402344 2.402344c.785156 11.601562-.207032 23.257812-2.945313 34.558593l-24.289063-2.214843c2.429688-8.378907 3.625-17.070313 3.546876-25.792969zm-22.878906 50.242187 25.273437 2.3125c-6.683594 16.472657-17.136719 31.148438-30.511719 42.855469l-19.355468-15.039062c10.292968-8.121094 18.683593-18.398438 24.578124-30.105469zm-49.601563 44.078125c3.683594-1.367187 7.277344-2.96875 10.753906-4.800781l20.375 15.867187c-7.199219 4.679688-14.898437 8.535157-22.960937 11.496094l-20.375 7.40625-20.382813-18.105468zm-49.117187 18.535156 19.855468 17.648438-3.199218 1.160156c-16.914063 6.191406-29.199219 20.988282-32.167969 38.753906l-23.441407-5.242187c4.210938-22.5 18.574219-41.800781 38.917969-52.292969zm-40.273438 105.328126v-36.886719l24 5.375v35.617187zm0 0"/><path d="m24 456h16v16h-16zm0 0"/><path d="m176 408h16v16h-16zm0 0"/><path d="m232 456h16v16h-16zm0 0"/><path d="m112 440h16v16h-16zm0 0"/><path d="m88 384h16v16h-16zm0 0"/><path d="m312 440h16v16h-16zm0 0"/><path d="m424 456h16v16h-16zm0 0"/><path d="m352 184v16c35.328125.039062 63.960938 28.671875 64 64h16c-.046875-44.164062-35.835938-79.953125-80-80zm0 0"/><path d="m464 264c.136719-42.992188-24.351562-82.269531-63.019531-101.074219-38.664063-18.800781-84.679688-13.8125-118.414063 12.84375-33.734375 26.652344-49.234375 70.265625-39.886718 112.230469h-146.679688v16h384v-16h-18.679688c1.761719-7.878906 2.660157-15.925781 2.679688-24zm-204.929688 24c-10.078124-38.882812 5.113282-79.929688 38.078126-102.878906 32.96875-22.949219 76.734374-22.949219 109.703124 0 32.964844 22.949218 48.15625 63.996094 38.078126 102.878906zm0 0"/><path d="m352 56c2.121094 0 4.15625-.84375 5.65625-2.34375l24-24-11.3125-11.3125-18.34375 18.34375-18.34375-18.34375-11.3125 11.3125 24 24c1.5 1.5 3.535156 2.34375 5.65625 2.34375zm0 0"/><path d="m10.34375 29.65625 24 24c3.125 3.121094 8.1875 3.121094 11.3125 0l24-24-11.3125-11.3125-18.34375 18.34375-18.34375-18.34375zm0 0"/><path d="m424 112c2.121094 0 4.15625-.84375 5.65625-2.34375l24-24-11.3125-11.3125-18.34375 18.34375-18.34375-18.34375-11.3125 11.3125 24 24c1.5 1.5 3.535156 2.34375 5.65625 2.34375zm0 0"/></svg>