<svg height="464pt" viewBox="0 -31 464 463" width="464pt" xmlns="http://www.w3.org/2000/svg"><path d="m154.449219 122.035156-21.753907 60.058594 85.878907-31.921875 17.859375-53.136719zm0 0" fill="#354f5b"/><path d="m218.558594 150.179688 36.640625-109.039063c47.804687-3.734375 95.566406 7.714844 136.480469 32.71875l12.160156 7.441406zm0 0" fill="#d63333"/><path d="m154.480469 122.019531-96.558594 12.71875 9.359375 30.5625 61.039062 18.398438 4.375-1.605469zm0 0" fill="#d63333"/><path d="m78.535156 202.226562 16.753906 54.945313 203.582032-62.078125c40.894531-12.472656 74.570312-41.710938 92.65625-80.449219l16.257812-34.808593zm0 0" fill="#d8e6eb"/><path d="m0 253.941406c25.761719 0 25.761719 18.558594 51.519531 18.558594 25.761719 0 25.769531-18.558594 51.535157-18.558594 25.769531 0 25.746093 18.558594 51.546874 18.558594 25.796876 0 25.765626-18.558594 51.535157-18.558594 25.765625 0 25.773437 18.558594 51.550781 18.558594s25.769531-18.558594 51.527344-18.558594c25.761718 0 25.785156 18.558594 51.585937 18.558594s25.808594-18.558594 51.605469-18.558594c25.800781 0 25.792969 18.558594 51.59375 18.558594v128h-464zm0 0" fill="#0093ba"/><path d="m464 264.5c-7.765625.121094-15.300781-2.648438-21.136719-7.777344-17.769531-14.378906-43.171875-14.378906-60.941406 0-12.175781 10.367188-30.074219 10.367188-42.25 0-17.753906-14.378906-43.144531-14.378906-60.894531 0-12.15625 10.371094-30.039063 10.371094-42.191406 0-17.75-14.375-43.140626-14.375-60.890626 0-12.152343 10.371094-30.039062 10.371094-42.191406 0-17.75-14.375-43.136718-14.375-60.886718 0-5.824219 5.125-13.347657 7.898438-21.105469 7.777344-7.746094.121094-15.261719-2.652344-21.070313-7.777344-8.554687-7.082031-19.339844-10.902344-30.441406-10.78125v16c7.75-.125 15.265625 2.644532 21.078125 7.765625 8.546875 7.085938 19.332031 10.910157 30.433594 10.792969 11.109375.121094 21.902343-3.703125 30.457031-10.792969 12.15625-10.355469 30.035156-10.355469 42.191406 0 17.742188 14.390625 43.136719 14.390625 60.878906 0 12.160157-10.355469 30.039063-10.355469 42.199219 0 17.75 14.390625 43.148438 14.390625 60.898438 0 12.15625-10.355469 30.035156-10.355469 42.191406 0 17.765625 14.390625 43.171875 14.390625 60.9375 0 12.179687-10.355469 30.074219-10.355469 42.253906 0 8.5625 7.089844 19.363281 10.914063 30.480469 10.792969zm0 0"/><path d="m464 304.5c-7.765625.121094-15.300781-2.648438-21.136719-7.777344-17.769531-14.378906-43.171875-14.378906-60.941406 0-12.175781 10.367188-30.074219 10.367188-42.25 0-17.753906-14.378906-43.144531-14.378906-60.894531 0-12.15625 10.371094-30.039063 10.371094-42.191406 0-17.75-14.375-43.140626-14.375-60.890626 0-12.152343 10.371094-30.039062 10.371094-42.191406 0-17.75-14.375-43.136718-14.375-60.886718 0-5.824219 5.125-13.347657 7.898438-21.105469 7.777344-7.746094.121094-15.261719-2.652344-21.070313-7.777344-8.554687-7.082031-19.339844-10.902344-30.441406-10.78125v16c7.75-.125 15.265625 2.644532 21.078125 7.765625 8.546875 7.085938 19.332031 10.910157 30.433594 10.792969 11.109375.121094 21.902343-3.703125 30.457031-10.792969 12.15625-10.355469 30.035156-10.355469 42.191406 0 17.742188 14.390625 43.136719 14.390625 60.878906 0 12.160157-10.355469 30.039063-10.355469 42.199219 0 17.75 14.390625 43.148438 14.390625 60.898438 0 12.15625-10.355469 30.035156-10.355469 42.191406 0 17.765625 14.390625 43.171875 14.390625 60.9375 0 12.179687-10.355469 30.074219-10.355469 42.253906 0 8.5625 7.089844 19.363281 10.914063 30.480469 10.792969zm0 0"/><path d="m280.097656.5-.410156 16c39.75.941406 78.691406 11.414062 113.550781 30.527344l7.65625-14.039063c-37.085937-20.335937-78.511719-31.476562-120.796875-32.488281zm0 0"/><path d="m152.753906 114.179688-95.882812 12.632812c-2.332032.308594-4.410156 1.628906-5.679688 3.605469-1.269531 1.980469-1.609375 4.417969-.917968 6.667969l9.359374 30.558593c.78125 2.546875 2.78125 4.539063 5.335938 5.3125l38.277344 11.542969-50.039063 18.59375 5.601563 15 14.566406-5.417969 6.769531 22.160157 15.296875-4.671876-7.042968-23.070312 303.875-112.992188-8 17.125c-17.148438 36.667969-49.035157 64.347657-87.746094 76.175782l-154.871094 47.203125 4.671875 15.292969 154.871094-47.199219c43.058593-13.148438 78.527343-43.929688 97.601562-84.710938l14.855469-31.824219 20.757812-7.71875-5.597656-15-24.128906 8.964844-8.847656-5.40625c-42.3125-25.972656-91.78125-37.832031-141.273438-33.863281-3.199218.25-5.9375 2.386719-6.957031 5.429687l-7.679687 22.851563-44.25-9.480469-3.359376 15.636719 42.480469 9.105469-4.664062 13.894531zm71.125-4.9375-11.679687 34.753906-66.0625 24.550781 14.496093-40zm-155.535156 32.195312 74.128906-9.761719-15.65625 43.199219-53.136718-16zm187.34375-76.617188 5.390625-16.054687c43.628906-2.4375 86.980469 8.292969 124.433594 30.796875l-154.015625 57.257812 19.0625-56.746093 22.304687 4.800781 3.359375-15.640625zm0 0"/><path d="m106.578125 211.894531 15.304687-4.664062 4.667969 15.3125-15.304687 4.664062zm0 0"/></svg>