<svg height="472pt" viewBox="-24 0 472 472" width="472pt" xmlns="http://www.w3.org/2000/svg"><path d="m320 88h80c8.808594-.066406 15.933594-7.191406 16-16-.027344-8.824219-7.175781-15.972656-16-16h-80zm0 0" fill="#354f5b"/><path d="m344 464h-80c-17.671875 0-32-14.328125-32-32v-264c0-39.765625 32.234375-72 72-72s72 32.234375 72 72v264c0 17.671875-14.328125 32-32 32zm0 0" fill="#ffe900"/><path d="m232 376h144v32h-144zm0 0" fill="#354f5b"/><path d="m232 168h144v32h-144zm0 0" fill="#354f5b"/><path d="m112 72h192v32h-192zm0 0" fill="#7a8c9c"/><path d="m88 128v-56c0-13.253906 10.746094-24 24-24s24 10.746094 24 24v56zm0 0" fill="#354f5b"/><path d="m152 464h-80c-17.671875 0-32-14.328125-32-32v-264c0-39.765625 32.234375-72 72-72s72 32.234375 72 72v264c0 17.671875-14.328125 32-32 32zm0 0" fill="#ffe900"/><path d="m352 72c0 26.507812-21.492188 48-48 48s-48-21.492188-48-48 21.492188-48 48-48 48 21.492188 48 48zm0 0" fill="#0093ba"/><path d="m40 376h144v32h-144zm0 0" fill="#354f5b"/><path d="m40 168h144v32h-144zm0 0" fill="#354f5b"/><path d="m16 168c-.015625-18.085938 5.105469-35.808594 14.769531-51.097656l-13.539062-8.542969c-11.269531 17.847656-17.246094 38.53125-17.230469 59.640625v120h16zm0 0"/><path d="m0 304h16v16h-16zm0 0"/><path d="m304 64c4.417969 0 8 3.582031 8 8h16c0-13.253906-10.746094-24-24-24s-24 10.746094-24 24h16c0-4.417969 3.582031-8 8-8zm0 0"/><path d="m400 48h-8v-16h-16v16h-21.480469c-10.550781-22.3125-34.484375-35.0625-58.890625-31.375-24.402344 3.6875-43.5 22.941406-46.988281 47.375h-105.777344c-2.785156-11.277344-11.585937-20.078125-22.863281-22.863281v-9.136719h16v-16h-16v-16h-16v16h-16v16h16v9.136719c-14.085938 3.636719-23.945312 16.316406-24 30.863281v22.726562c-29.121094 12.738282-47.957031 41.488282-48 73.273438v264c.027344 22.082031 17.917969 39.972656 40 40h80c22.082031-.027344 39.972656-17.917969 40-40v-264c.003906-20.960938-8.246094-41.078125-22.96875-56h77.96875c-14.710938 14.929688-22.972656 35.039062-23 56v264c.027344 22.082031 17.917969 39.972656 40 40h80c22.082031-.027344 39.972656-17.917969 40-40v-264c.082031-21.210938-8.355469-41.566406-23.425781-56.496094-3.09375-3.085937-6.449219-5.90625-10.023438-8.425781 1.5-2.261719 2.835938-4.625 4-7.078125h21.449219v16h16v-16h8c13.226562-.066406 23.933594-10.773438 24-24 0-13.253906-10.746094-24-24-24zm-96-16c22.089844 0 40 17.910156 40 40s-17.910156 40-40 40-40-17.910156-40-40c.027344-22.082031 17.917969-39.972656 40-40zm-160 62.726562v-14.726562h104.640625c.796875 5.546875 2.425781 10.941406 4.839844 16h-106.839844c-.878906-.425781-1.746094-.878906-2.640625-1.273438zm-48-22.726562c0-8.835938 7.164062-16 16-16s16 7.164062 16 16v17.601562c-10.558594-2.15625-21.441406-2.15625-32 0zm16 32c32.222656.054688 59.390625 24.03125 63.449219 56h-126.898438c4.058594-31.96875 31.226563-55.945312 63.449219-56zm-64 264v-160h128v160zm128 16v16h-128v-16zm-128-192v-16h128v16zm104 264h-80c-13.253906 0-24-10.746094-24-24v-16h128v16c0 13.253906-10.746094 24-24 24zm88-88v-160h128v160zm128 16v16h-128v-16zm-128-192v-16h128v16zm104 264h-80c-13.253906 0-24-10.746094-24-24v-16h128v16c0 13.253906-10.746094 24-24 24zm23.449219-296h-126.90625c2.335937-18.269531 12.433593-34.648438 27.714843-44.9375 20.703126 17.238281 50.765626 17.238281 71.46875 0 3.421876 2.25 6.605469 4.832031 9.511719 7.714844 10.089844 10.003906 16.503907 23.117187 18.210938 37.222656zm-8.089844-80c.855469-5.300781.855469-10.699219 0-16h16.640625v16zm46.183594-2.296875c-1.457031 1.488281-3.460938 2.316406-5.542969 2.296875h-8v-16h8c4.417969 0 8 3.582031 8 8 .003906 2.160156-.882812 4.222656-2.457031 5.703125zm0 0"/><path d="m400 288h16v136h-16zm0 0"/><path d="m152 232h-80c-4.417969 0-8 3.582031-8 8v96c0 4.417969 3.582031 8 8 8h80c4.417969 0 8-3.582031 8-8v-96c0-4.417969-3.582031-8-8-8zm-8 96h-64v-80h64zm0 0"/><path d="m96 264h32v16h-32zm0 0"/><path d="m96 296h32v16h-32zm0 0"/></svg>