<svg height="451pt" viewBox="0 -10 451.53583 451" width="451pt" xmlns="http://www.w3.org/2000/svg"><path d="m443.570312 392.269531-168 32-40-192-40 192-168-32 27.441407-208.640625 6.078125-46.320312 6.480468-49.039063v-48h336v48l6.480469 49.039063 6.078125 46.320312zm0 0" fill="#0093ba"/><path d="m55.011719 183.628906 180.558593 48.640625 180.558594-48.640625-6.078125-46.320312-174.480469 46.960937-174.480468-46.960937zm0 0" fill="#ccdde6"/><path d="m0 295.230469 23.15625-176.003907 15.863281 2.085938-23.15625 176.003906zm0 0"/><path d="m203.402344 425.867188 32.167968-154.398438 32.167969 154.398438c.890625 4.273437 5.042969 7.042968 9.328125 6.226562l168-32c4.152344-.8125 6.957032-4.710938 6.398438-8.90625l-39.894532-303.441406v-47.476563c0-4.417969-3.582031-8-8-8h-336c-4.417968 0-8 3.582031-8 8v47.476563l-39.929687 303.472656c-.554687 4.195312 2.25 8.097656 6.402344 8.90625l168 32c4.308593.832031 8.484375-1.957031 9.359375-6.257812zm32.167968-201.886719-171.703124-46.257813 4-30.3125 165.597656 44.585938c1.363281.363281 2.796875.363281 4.160156 0l165.601562-44.585938 4 30.3125zm46.222657 190.960937-36.855469-176.914062 164.441406-44.296875 25.28125 192.089843zm-206.222657-326.671875v-40h320v40c0 .347657.023438.699219.070313 1.046875l5.539063 42.09375-165.609376 44.578125-165.601562-44.578125 5.539062-42.09375c.042969-.347656.066407-.699218.0625-1.046875zm-39.089843 297.550781 25.28125-192.089843 164.441406 44.296875-36.855469 176.914062zm0 0"/><path d="m219.570312 112.269531-14.398437 19.199219 12.796875 9.597656 17.601562-23.460937 17.601563 23.460937 12.796875-9.597656-14.398438-19.199219c10.132813-.042969 19.148438-6.445312 22.527344-16h17.472656v-16h-17.472656c-2.617187-7.570312-8.867187-13.308593-16.628906-15.277343-7.761719-1.964844-15.992188.109374-21.898438 5.515624-5.90625-5.40625-14.136718-7.480468-21.898437-5.515624-7.761719 1.96875-14.011719 7.707031-16.628906 15.277343h-17.472657v16h17.472657c3.378906 9.554688 12.394531 15.957031 22.527343 16zm32-32c4.417969 0 8 3.582031 8 8s-3.582031 8-8 8h-8v-8c0-4.417969 3.582032-8 8-8zm-32 0c4.417969 0 8 3.582031 8 8v8h-8c-4.417968 0-8-3.582031-8-8s3.582032-8 8-8zm0 0"/><path d="m398.558594 360.671875 15.6875-3.152344 3.15625 15.683594-15.6875 3.15625zm0 0"/><path d="m195.570312.269531h176v16h-176zm0 0"/><path d="m387.570312.269531h16v16h-16zm0 0"/></svg>