<svg height="464pt" viewBox="0 -64 464 464" width="464pt" xmlns="http://www.w3.org/2000/svg"><path d="m399.519531 95.28125-7.199219-10c-20.285156-28.398438-53.023437-45.257812-87.921874-45.28125h-120.398438l-24 72v15.511719h239.519531zm0 0" fill="#0093ba"/><path d="m48 160 8-64 64-16 8 32v63.015625h-80zm0 0" fill="#abbac2"/><path d="m374.742188 246.71875 73.257812-158.71875-160 24h-192l-24 48h-48v24l61.03125 45.769531zm0 0" fill="#ccdde6"/><path d="m464 233.28125c-25.800781 0-25.800781-18.5625-51.609375-18.5625-25.804687 0-25.796875 18.5625-51.605469 18.5625s-25.785156-18.5625-51.570312-18.5625c-25.78125 0-25.757813 18.5625-51.527344 18.5625-25.765625 0-25.777344-18.5625-51.550781-18.5625-25.777344 0-25.769531 18.5625-51.535157 18.5625-25.769531 0-25.777343-18.5625-51.546874-18.5625-25.765626 0-25.765626 18.5625-51.535157 18.5625-25.765625 0-25.757812-18.5625-51.519531-18.5625v121.28125h464zm0 0" fill="#0093ba"/><path d="m184 40-24 72h64l24-72zm0 0" fill="#ffc117"/><path d="m51.511719 241.28125c11.109375.117188 21.898437-3.703125 30.457031-10.785156 12.152344-10.367188 30.039062-10.367188 42.191406 0 17.746094 14.378906 43.132813 14.378906 60.878906 0 12.15625-10.371094 30.046876-10.371094 42.199219 0 17.753907 14.378906 43.144531 14.378906 60.898438 0 12.152343-10.367188 30.039062-10.367188 42.191406 0 17.765625 14.378906 43.167969 14.378906 60.9375 0 12.175781-10.367188 30.078125-10.367188 42.253906 0 8.566407 7.085937 19.363281 10.910156 30.480469 10.785156v-16c-7.765625.121094-15.300781-2.652344-21.136719-7.777344-17.769531-14.378906-43.171875-14.378906-60.941406 0-12.175781 10.367188-30.074219 10.367188-42.25 0-17.753906-14.378906-43.144531-14.378906-60.894531 0-12.15625 10.367188-30.039063 10.367188-42.191406 0-17.75-14.378906-43.140626-14.378906-60.890626 0-12.152343 10.367188-30.039062 10.367188-42.191406 0-17.75-14.378906-43.136718-14.378906-60.886718 0-5.824219 5.125-13.347657 7.898438-21.105469 7.777344-7.746094.121094-15.261719-2.652344-21.070313-7.777344-8.554687-7.082031-19.339844-10.902344-30.441406-10.785156v16c7.75-.121094 15.265625 2.652344 21.078125 7.777344 8.550781 7.082031 19.332031 10.902344 30.433594 10.785156zm0 0"/><path d="m51.511719 281.28125c11.109375.117188 21.898437-3.703125 30.457031-10.785156 12.152344-10.367188 30.039062-10.367188 42.191406 0 17.746094 14.378906 43.132813 14.378906 60.878906 0 12.15625-10.371094 30.046876-10.371094 42.199219 0 17.753907 14.378906 43.144531 14.378906 60.898438 0 12.152343-10.367188 30.039062-10.367188 42.191406 0 17.765625 14.378906 43.167969 14.378906 60.9375 0 12.175781-10.367188 30.078125-10.367188 42.253906 0 8.566407 7.085937 19.363281 10.910156 30.480469 10.785156v-16c-7.765625.121094-15.300781-2.652344-21.136719-7.777344-17.769531-14.378906-43.171875-14.378906-60.941406 0-12.175781 10.367188-30.074219 10.367188-42.25 0-17.753906-14.378906-43.144531-14.378906-60.894531 0-12.15625 10.367188-30.039063 10.367188-42.191406 0-17.75-14.378906-43.140626-14.378906-60.890626 0-12.152343 10.367188-30.039062 10.367188-42.191406 0-17.75-14.378906-43.136718-14.378906-60.886718 0-5.824219 5.125-13.347657 7.898438-21.105469 7.777344-7.746094.121094-15.261719-2.652344-21.070313-7.777344-8.554687-7.082031-19.339844-10.902344-30.441406-10.785156v16c7.75-.121094 15.265625 2.652344 21.078125 7.777344 8.550781 7.082031 19.332031 10.902344 30.433594 10.785156zm0 0"/><path d="m40.535156 206.398438 9.601563-12.796876-18.136719-13.601562v-12h40c3.03125 0 5.804688-1.710938 7.160156-4.425781l5.785156-11.574219h163.054688v-16h-155.054688l8-16h187.054688c.394531 0 .792969-.03125 1.183594-.089844l145.335937-21.796875-41.785156 90.535157 14.53125 6.703124 48-104c1.230469-2.667968.898437-5.800781-.867187-8.152343-1.746094-2.375-4.671876-3.574219-7.582032-3.109375l-43.617187 6.550781-4.328125-6.015625c-21.824219-30.472656-56.988282-48.574219-94.472656-48.625h-117.085938l-29.65625-29.65625-11.3125 11.3125 28.503906 28.503906-20.609375 61.839844h-20l-6.476562-25.945312c-1.074219-4.28125-5.414063-6.882813-9.699219-5.816407l-64 16c-3.203125.800781-5.589844 3.492188-6 6.769531l-7.125 56.992188h-16.9375c-4.417969 0-8 3.582031-8 8v24c0 2.519531 1.1875 4.890625 3.199219 6.398438zm344.800782-117.085938-97.929688 14.6875h-52.308594l18.664063-56h50.636719c32.019531.074219 62.078124 15.421875 80.914062 41.3125zm-197.839844-34.503906 22.847656 22.847656 11.3125-11.3125-18.34375-18.34375h33.597656l-18.671875 56h-47.140625zm-124.238282 47.589844 50.917969-12.726563 3.578125 14.328125h-21.753906c-3.03125 0-5.804688 1.710938-7.160156 4.425781l-21.785156 43.574219h-9.992188zm0 0"/><path d="m376 120h16v16h-16zm0 0"/><path d="m344 128h16v16h-16zm0 0"/><path d="m396.800781 53.710938 11.199219-11.429688c-27.75-26.984375-64.894531-42.144531-103.601562-42.28125h-48.398438v16h48.398438c34.523437.128906 67.648437 13.648438 92.402343 37.710938zm0 0"/><path d="m224 0h16v16h-16zm0 0"/></svg>