<svg height="463pt" viewBox="0 -5 463.96905 463" width="463pt" xmlns="http://www.w3.org/2000/svg"><path d="m455.984375 226.9375-36.777344 42.75 14.632813 54.472656-51.734375 22.480469-10.449219 55.429687-56.359375-2.101562-33.464844 45.398438-49.847656-26.429688-49.839844 26.429688-33.480469-45.398438-56.351562 2.09375-10.457031-55.421875-51.726563-22.488281 14.632813-54.464844-36.777344-42.75 36.777344-42.753906-14.632813-54.472656 51.734375-22.480469 10.449219-55.429688 56.359375 2.101563 33.464844-45.398438 49.847656 26.433594 49.839844-26.433594 33.480469 45.398438 56.351562-2.09375 10.457031 55.421875 51.726563 22.488281-14.632813 54.464844zm0 0" fill="#fdad2a"/><path d="m383.984375 226.9375c0 83.945312-68.050781 152-152 152-83.945313 0-152-68.054688-152-152 0-83.949219 68.054687-152 152-152 83.949219 0 152 68.050781 152 152zm0 0" fill="#ffc117"/><path d="m207.984375 210.9375c0 26.507812-21.488281 48-48 48-26.507813 0-48-21.492188-48-48 0-26.515625 21.488281-32 48-32s48 5.484375 48 32zm0 0" fill="#354f5b"/><path d="m255.984375 210.9375c0 26.507812 21.492187 48 48 48 26.511719 0 48-21.492188 48-48 0-26.515625-21.488281-32-48-32s-48 5.484375-48 32zm0 0" fill="#354f5b"/><path d="m148.457031 193.472656c-4.6875-4.683594-13.550781-3.417968-19.800781 2.828125-6.246094 6.25-7.511719 15.113281-2.828125 19.800781 4.6875 4.6875 13.550781 3.417969 19.800781-2.828124 6.246094-6.25 7.515625-15.113282 2.828125-19.800782zm0 0" fill="#7a8c9c"/><path d="m293.15625 193.476562c-4.6875-4.683593-13.550781-3.417968-19.800781 2.832032-6.246094 6.246094-7.511719 15.109375-2.828125 19.796875 4.6875 4.6875 13.550781 3.421875 19.800781-2.828125s7.515625-15.113282 2.828125-19.800782zm0 0" fill="#7a8c9c"/><path d="m35.9375 271.734375-13.554688 50.34375c-1.023437 3.832031.910157 7.832031 4.546876 9.410156l47.839843 20.800781 9.664063 51.261719c.777344 3.863281 4.21875 6.609375 8.160156 6.511719l52.125-1.941406 30.984375 42.015625c2.351563 3.1875 6.683594 4.175781 10.183594 2.320312l46.097656-24.464843 46.097656 24.441406c3.5 1.851562 7.832031.867187 10.183594-2.320313l30.96875-41.992187 52.125 1.941406c3.957031.148438 7.425781-2.621094 8.160156-6.511719l9.664063-51.261719 47.839844-20.800781c3.636718-1.578125 5.570312-5.578125 4.546874-9.410156l-13.539062-50.398437 34.015625-39.542969c2.5625-2.996094 2.5625-7.40625 0-10.402344l-34.015625-39.597656 13.539062-50.402344c1.023438-3.828125-.910156-7.828125-4.546874-9.40625l-47.839844-20.800781-9.664063-51.207032c-.734375-3.890624-4.203125-6.660156-8.160156-6.511718l-52.125 1.941406-30.96875-42.015625c-2.351563-3.1875-6.683594-4.171875-10.183594-2.320313l-46.097656 24.464844-46.097656-24.4375c-3.5-1.855468-7.832031-.871094-10.183594 2.316406l-30.964844 41.992188-52.128906-1.941406c-3.941406-.101563-7.382813 2.644531-8.160156 6.511718l-9.664063 51.261719-47.839844 20.800781c-3.640624 1.570313-5.578124 5.570313-4.5625 9.402344l13.539063 50.398438-34 39.535156c-2.5625 2.996094-2.5625 7.40625 0 10.402344zm14.886719-82.328125c1.726562-2.007812 2.34375-4.738281 1.65625-7.292969l-12.800781-47.816406 45.402343-19.730469c2.429688-1.054687 4.179688-3.25 4.671875-5.855468l9.175782-48.65625 49.472656 1.839843c2.636718.074219 5.148437-1.136719 6.734375-3.246093l29.375-39.839844 43.761719 23.199218c2.339843 1.238282 5.144531 1.238282 7.488281 0l43.757812-23.199218 29.378907 39.839844c1.59375 2.101562 4.097656 3.308593 6.734374 3.246093l49.472657-1.839843 9.175781 48.664062c.492188 2.605469 2.246094 4.796875 4.679688 5.847656l45.390624 19.738282-12.800781 47.800781c-.6875 2.554687-.066406 5.285156 1.65625 7.292969l32.226563 37.539062-32.289063 37.527344c-1.726562 2.007812-2.34375 4.738281-1.65625 7.292968l12.800781 47.816407-45.402343 19.730469c-2.429688 1.054687-4.179688 3.25-4.671875 5.855468l-9.140625 48.65625-49.472657-1.839844c-2.644531-.089843-5.160156 1.125-6.738281 3.246094l-29.375 39.839844-43.757812-23.199219c-2.34375-1.246093-5.148438-1.246093-7.488281 0l-43.761719 23.199219-29.375-39.839844c-1.570313-2.128906-4.09375-3.34375-6.738281-3.246094l-49.46875 1.839844-9.179688-48.664062c-.492188-2.605469-2.246094-4.796875-4.679688-5.847656l-45.390624-19.738282 12.800781-47.796875c.6875-2.558593.070312-5.289062-1.65625-7.296875l-32.257813-37.535156zm0 0"/><path d="m71.984375 226.9375c0 88.363281 71.632813 160 160 160s160-71.636719 160-160c0-2.707031-.273437-5.335938-.40625-8h16.40625v-16h-18c-11.757813-78.191406-78.933594-136.019531-158-136.019531s-146.242187 57.828125-158 136.019531h-18v16h16.40625c-.132813 2.664062-.40625 5.292969-.40625 8zm304 0c0 79.527344-64.472656 144-144 144s-144-64.472656-144-144c0-2.707031.257813-5.335938.40625-8h16.234375c3.953125 27.53125 27.542969 47.976562 55.359375 47.976562s51.40625-20.445312 55.359375-47.976562h33.28125c3.953125 27.53125 27.542969 47.976562 55.359375 47.976562s51.40625-20.445312 55.359375-47.976562h16.234375c.152344 2.664062.40625 5.292969.40625 8zm-256-16c0-14.402344 6.800781-24 40-24s40 9.597656 40 24c0 22.089844-17.910156 40-40 40s-40-17.910156-40-40zm144 0c0-14.402344 6.800781-24 40-24s40 9.597656 40 24c0 22.089844-17.910156 40-40 40s-40-17.910156-40-40zm-32-128c70.191406.121094 130.089844 50.796875 141.832031 120h-14.519531c-5.3125-31.945312-42.464844-32-55.3125-32s-50 .054688-55.3125 32h-33.375c-5.3125-31.945312-42.464844-32-55.3125-32s-50 .054688-55.3125 32h-14.519531c11.746094-69.203125 71.640625-119.878906 141.832031-120zm0 0"/><path d="m231.984375 330.9375c-12.691406-.050781-25.011719-4.265625-35.070313-12l-9.859374 12.605469c12.851562 9.984375 28.660156 15.398437 44.929687 15.394531 35.457031 0 64-26.257812 64-48h-16c0 12.582031-20.617187 32-48 32zm0 0"/><path d="m247.984375 290.9375h8v-16h-8c-4.417969 0-8-3.582031-8-8v-16h-16v16c0 13.253906 10.746094 24 24 24zm0 0"/><path d="m322.496094 136.433594c-4.28125-4.289063-8.863282-8.261719-13.710938-11.898438l-9.601562 12.800782c4.242187 3.179687 8.25 6.65625 12 10.398437zm0 0"/><path d="m287.886719 129.863281 8-13.863281c-32.886719-18.6875-72.300781-22.085938-107.902344-9.296875l5.503906 15.023437c31.148438-11.183593 65.625-8.210937 94.398438 8.136719zm0 0"/></svg>