<svg height="480pt" viewBox="0 0 480 480.02138" width="480pt" xmlns="http://www.w3.org/2000/svg"><path d="m167.96875 415.710938-75.558594-145.570313-28.398437 14.746094 67.902343 130.824219zm0 0" fill="#057fa8"/><path d="m472.011719 128.019531c0 66.277344-53.726563 120-120 120-66.273438 0-120-53.722656-120-120 0-66.273437 53.726562-120 120-120 66.273437 0 120 53.726563 120 120zm0 0" fill="#ffc117"/><path d="m182.152344 33.152344c82.238281-16.859375 162.570312 36.140625 179.429687 118.375l1.609375 7.835937-297.808594 61.054688-1.605468-7.835938c-16.859375-82.234375 36.140625-162.570312 118.375-179.429687zm0 0" fill="#ccdde6"/><path d="m288.464844 472.019531-58.503906-285.34375-31.351563 6.425781 57.183594 278.917969zm0 0" fill="#a3783c"/><path d="m135.914062 205.957031-1.597656-7.839843c-16.867187-82.230469 4.550782-156.097657 47.839844-164.96875l32.132812 156.746093zm0 0" fill="#ec4042"/><path d="m72.011719 384.019531h336v32h-336zm0 0" fill="#0093ba"/><path d="m291.050781 165.980469 1.601563 7.839843 70.558594-14.464843-1.601563-7.832031c-16.847656-82.246094-97.183594-135.257813-179.429687-118.398438 43.253906-8.847656 92.007812 50.625 108.871093 132.855469zm0 0" fill="#ec4042"/><path d="m.0117188 464.019531h16.0000002v16h-16.0000002zm0 0"/><path d="m223.738281 196.125 33.929688 165.496094 15.671875-3.199219-33.929688-165.511719 47-9.640625 3.199219 15.671875 15.671875-3.199218-3.199219-15.671876 54.878907-11.25 3.203124 15.679688 15.664063-3.199219-4.800781-23.503906-1.601563-7.847656c-17.035156-83.546875-96.714843-138.960938-180.96875-125.855469l-3.285156-16.074219-15.671875 3.203125 3.3125 16.09375c-82.472656 21.277344-133.839844 103.410156-116.875 186.871094l1.601562 7.84375 4.800782 23.503906 15.671875-3.203125-3.199219-15.664062 54.855469-11.246094 3.199219 15.671875 15.671874-3.199219-3.199218-15.664062 47.015625-9.640625 32.648437 159.03125 15.671875-3.199219-32.617187-159.089844 7.839844-1.597656zm59.472657-28.535156-62.695313 12.855468-28.722656-140.097656c36.335937.945313 76.824219 56.082032 91.417969 127.242188zm70.535156-14.457032-54.863282 11.25c-6.96875-37.828124-22.796874-73.464843-46.183593-104-6.417969-7.929687-13.789063-15.035156-21.945313-21.160156 61.152344 7.734375 110.601563 53.53125 122.992188 113.910156zm-214.023438-95.078124c-5.019531 8.769531-8.953125 18.117187-11.710937 27.839843-9.488281 37.289063-10.011719 76.296875-1.527344 113.832031l-54.875 11.246094c-12.246094-60.285156 15.109375-121.699218 68.113281-152.917968zm2.398438 138.460937c-14.589844-71.199219.929687-137.734375 33.976562-152.941406l28.714844 140.085937-62.699219 12.855469zm0 0"/><path d="m416.011719 414.894531v-30.875c0-4.417969-3.582031-8-8-8h-251.625l-56.878907-109.558593c-2.035156-3.921876-6.863281-5.449219-10.785156-3.414063l-28.398437 14.742187c-3.921875 2.035157-5.453125 6.863282-3.417969 10.785157l45.402344 87.445312h-30.296875c-4.417969 0-8 3.582031-8 8v30.875l-14.042969 49.125h-17.957031v16h448v-16h-49.960938zm-341.210938-126.59375 14.195313-7.367187 49.359375 95.085937h-18.023438zm5.210938 103.71875h320v16h-320zm-1.960938 32h323.917969l11.433594 40h-118.398438l-5.25-25.597656-15.671875 3.199219 4.59375 22.398437h-16.351562l-5.25-25.597656-15.671875 3.199219 4.59375 22.398437h-179.378906zm0 0"/><path d="m480.011719 128.019531c.007812-45.710937-24.367188-87.960937-63.945313-110.835937-39.574218-22.878906-88.351562-22.914063-127.960937-.089844l8 13.855469c49.621093-28.570313 112.796875-15.113281 146.46875 31.191406 33.675781 46.308594 27 110.558594-15.476563 148.953125-42.472656 38.394531-107.066406 38.574219-149.75.414062l-10.671875 11.921876c37.621094 33.652343 91.511719 42.050781 137.589844 21.445312 46.082031-20.609375 75.746094-66.375 75.746094-116.855469zm0 0"/></svg>