<svg height="480pt" viewBox="0 -88 480 480" width="480pt" xmlns="http://www.w3.org/2000/svg"><path d="m448 8-48.566406 18.269531c-5.207032 1.957031-9.152344 6.296875-10.609375 11.664063-1.453125 5.367187-.238281 11.105468 3.265625 15.425781 3.5 4.308594 8.863281 6.675781 14.40625 6.359375 5.546875-.316406 10.601562-3.277344 13.59375-7.960938zm0 0" fill="#354f5b"/><path d="m456 232h-24c-8.835938 0-16-7.164062-16-16 0-8.839844 7.164062-16 16-16h24c8.835938 0 16 7.160156 16 16 0 8.835938-7.164062 16-16 16zm0 0" fill="#7a8c9c"/><path d="m136 136h208v32h-208zm0 0" fill="#7a8c9c"/><path d="m32 8 48.566406 18.269531c5.207032 1.957031 9.152344 6.296875 10.609375 11.664063 1.453125 5.367187.238281 11.105468-3.265625 15.425781-3.5 4.308594-8.863281 6.675781-14.40625 6.359375-5.546875-.316406-10.601562-3.277344-13.59375-7.960938zm0 0" fill="#354f5b"/><path d="m24 200h24c8.835938 0 16 7.160156 16 16 0 8.835938-7.164062 16-16 16h-24c-8.835938 0-16-7.164062-16-16 0-8.839844 7.164062-16 16-16zm0 0" fill="#7a8c9c"/><path d="m224 208c0 48.597656-55.398438 88-104 88s-80-39.402344-80-88c0-48.601562 47.398438-72 96-72s88 23.398438 88 72zm0 0" fill="#354f5b"/><path d="m256 208c0 48.597656 55.398438 88 104 88s80-39.402344 80-88c0-48.601562-47.398438-72-96-72s-88 23.398438-88 72zm0 0" fill="#354f5b"/><path d="m65.175781 198.078125c-.792969 3.246094-1.1875 6.578125-1.175781 9.921875 0 2.9375.152344 5.875.457031 8.796875l15.910157-1.664063c-.246094-2.367187-.367188-4.75-.367188-7.132812-.007812-2.050781.226562-4.089844.703125-6.082031zm0 0"/><path d="m77.519531 178.03125 10.664063 11.925781c11.535156-10.300781 32.96875-13.957031 47.816406-13.957031 9.882812-.207031 19.71875 1.378906 29.039062 4.671875l5.921876-14.867187c-11.1875-4.113282-23.046876-6.082032-34.960938-5.804688-8.984375 0-39.753906 1.300781-58.480469 18.03125zm0 0"/><path d="m296.558594 201.414062-15.757813-2.832031c-.542969 3.109375-.8125 6.261719-.800781 9.417969.007812 3.320312.40625 6.625 1.183594 9.855469l15.558594-3.710938c-.484376-2.011719-.734376-4.074219-.742188-6.144531-.011719-2.207031.175781-4.410156.558594-6.585938zm0 0"/><path d="m289.910156 178.992188 12.179688 10.398437c9.910156-11.65625 30.511718-13.390625 41.910156-13.390625 12.589844-.105469 25.078125 2.292969 36.734375 7.046875l6.53125-14.609375c-13.726563-5.636719-28.429687-8.503906-43.265625-8.4375-17.296875 0-40.71875 3.292969-54.089844 18.992188zm0 0"/><path d="m176 96h168v16h-168zm0 0"/><path d="m360 96h16v16h-16zm0 0"/><path d="m479.953125 215.078125-.257813-2.222656c-.078124-.59375-.085937-1.191407-.207031-1.769531l-23.535156-204h-.066406c-.152344-1.507813-.734375-2.941407-1.679688-4.128907-2.167969-2.671875-5.800781-3.65625-9.023437-2.445312l-48.566406 18.269531c-11.429688 4.304688-18.15625 16.160156-15.984376 28.179688 2.171876 12.019531 12.617188 20.773437 24.832032 20.804687.496094 0 1 0 1.503906-.046875 8.128906-.421875 15.546875-4.769531 19.886719-11.65625l15.777343-24.761719 18.613282 161.3125c-1.71875-.394531-3.480469-.601562-5.246094-.613281h-9.792969c-9.40625-43.792969-57.285156-64-102.207031-64h-208c-44.921875 0-92.800781 20.207031-102.207031 64h-9.792969c-1.765625.011719-3.527344.21875-5.246094.613281l18.613282-161.3125 15.777343 24.761719c4.339844 6.886719 11.757813 11.234375 19.886719 11.65625.503906 0 1.007812.046875 1.503906.046875 12.214844-.03125 22.660156-8.785156 24.832032-20.804687 2.171874-12.019532-4.554688-23.875-15.984376-28.179688l-48.566406-18.269531c-3.222656-1.210938-6.855468-.226563-9.023437 2.445312-.945313 1.1875-1.527344 2.621094-1.679688 4.128907h-.066406l-23.535156 204c-.113281.550781-.121094 1.128906-.199219 1.695312l-.265625 2.289062h.0429688c0 .304688-.0898438.601563-.0898438.914063 0 13.253906 10.746094 24 24 24h12.535156c9.824219 37.96875 44.246094 64.371094 83.464844 64.015625 51.792969 0 112-41.9375 112-96 .105469-10.996094-2.074219-21.890625-6.398438-32h28.796876c-4.324219 10.109375-6.503907 21.003906-6.398438 32 0 54.0625 60.207031 96 112 96 39.214844.359375 73.636719-26.035156 83.464844-64h12.535156c13.253906 0 24-10.746094 24-24 0-.3125-.078125-.609375-.089844-.914062zm-66.59375-167.617187c-2.175781 3.410156-6.304687 5.015624-10.210937 3.984374-3.910157-1.035156-6.699219-4.480468-6.90625-8.515624-.203126-4.039063 2.222656-7.746094 6.003906-9.171876l26.105468-9.824218zm-335.605469-13.703126c3.78125 1.425782 6.207032 5.132813 6.003906 9.171876-.207031 4.035156-2.996093 7.480468-6.90625 8.515624-3.90625 1.03125-8.035156-.574218-10.210937-3.984374l-14.992187-23.527344zm-53.753906 190.242188c-4.351562 0-7.902344-3.476562-8-7.824219l.097656-.800781c.125-1.910156.949219-3.707031 2.316406-5.046875 1.464844-1.511719 3.484376-2.351563 5.585938-2.328125h8c.027344 5.351562.417969 10.699219 1.167969 16zm96 64c-41.71875 0-72-33.648438-72-80 0-44.210938 44.199219-64 88-64 38.671875 0 80 16.796875 80 64 0 44.320312-52.519531 80-96 80zm95.855469-128c-5.097657-6.269531-11.175781-11.671875-18-16h84.289062c-6.824219 4.328125-12.902343 9.730469-18 16zm144.144531 128c-43.480469 0-96-35.679688-96-80 0-47.203125 41.328125-64 80-64 43.800781 0 88 19.789062 88 64 0 46.351562-30.28125 80-72 80zm96-64h-9.167969c.75-5.300781 1.140625-10.648438 1.167969-16h8c2.15625-.007812 4.21875.878906 5.695312 2.445312 1.289063 1.304688 2.0625 3.035157 2.167969 4.867188l.105469.863281c-.097656 4.335938-3.628906 7.804688-7.96875 7.824219zm0 0"/></svg>