<svg height="473pt" viewBox="0 -1 473.448 473" width="473pt" xmlns="http://www.w3.org/2000/svg"><path d="m204.414062 448.226562c29.875-60.597656 50.960938-125.140624 62.617188-191.6875 31.007812-165.113281-27.941406-241.304687-27.941406-241.304687s-82.578125 49.601563-113.601563 214.726563c-18.886719 100.664062-15.03125 175.304687-9.152343 218.265624zm0 0" fill="#abbac2"/><path d="m159.175781 448.226562c19.941407-67.5 29.589844-137.621093 28.617188-208 0-168-72-232-72-232s-72 64-72 232c-.972657 70.378907 8.671875 140.5 28.613281 208zm0 0" fill="#ccdde6"/><path d="m178.695312 143.234375-133.40625 56.601563c-.945312 12.75-1.496093 26.167968-1.496093 40.390624 0 12.214844.269531 23.960938.734375 35.320313l142.664062-60.519531c-.992187-24.113282-3.832031-48.113282-8.496094-71.792969zm0 0" fill="#ec4042"/><path d="m187.792969 240.226562c0-8.695312-.234375-17.054687-.601563-25.199218l-142.664062 60.519531c1.089844 26.582031 3.328125 50.847656 6.28125 72.734375l135.480468-57.480469c.949219-15.976562 1.503907-32.796875 1.503907-50.574219zm0 0" fill="#0093ba"/><path d="m3.792969 464.226562s104-56 256-56 208 56 208 56zm0 0" fill="#a3783c"/><path d="m7.585938 471.273438c1.007812-.550782 104.207031-55.046876 252.207031-55.046876 146.144531 0 201.824219 53.144532 202.34375 53.65625l11.3125-11.3125c-2.386719-2.34375-60.113281-58.34375-213.65625-58.34375-8.625 0-17.074219.199219-25.367188.527344 18-46.1875 31.5625-93.980468 40.511719-142.734375 31.253906-166.738281-27.042969-244.425781-29.546875-247.648437-2.476563-3.179688-6.933594-4.023438-10.398437-1.960938-1.464844.871094-33.257813 20.535156-65.070313 74.238282-20.84375-54.871094-46.960937-78.789063-48.800781-80.40625-3.03125-2.691407-7.59375-2.691407-10.625 0-3.070313 2.710937-74.703125 68.382812-74.703125 237.984374-.625 64.902344 7.351562 129.605469 23.71875 192.414063-20.445313 6.625-40.339844 14.832031-59.511719 24.546875zm229.335937-444.589844c12.492187 21.414062 47.199219 95.71875 22.292969 228.382812-9.164063 50.175782-23.367188 99.300782-42.398438 146.625-13.175781.894532-25.894531 2.160156-38.105468 3.71875 11.679687-54.277344 17.40625-109.664062 17.082031-165.183594.609375-46.476562-5.785157-92.777343-18.976563-137.34375 14.71875-29.175781 35.160156-55.089843 60.105469-76.199218zm-185.128906 213.542968c0-12.289062.511719-23.816406 1.246093-34.984374l119.554688-50.753907c3.179688 18.316407 5.269531 36.800781 6.253906 55.363281l-126.71875 53.757813c-.191406-7.632813-.335937-15.382813-.335937-23.382813zm.992187 40.496094 126.71875-53.761718c.105469 4.410156.289063 8.695312.289063 13.265624 0 15.28125-.394531 30.320313-1.183594 45.121094l-121.160156 51.453125c-2.074219-17.230469-3.695313-35.941406-4.664063-56.078125zm63.007813-260.886718c11.480469 13.148437 38.621093 50.246093 53.597656 118.628906l-114.902344 48.800781c10.246094-99.785156 47.40625-151.367187 61.304688-167.429687zm-56.175781 333.429687 117.773437-50.03125c-2.535156 35.214844-7.765625 70.183594-15.636719 104.601563-29.4375 4.550781-58.511718 11.199218-87 19.894531-6.546875-24.492188-11.601562-49.359375-15.136718-74.464844zm0 0"/><path d="m195.792969 432.226562h16v16h-16zm0 0"/><path d="m115.792969 440.226562h16v16h-16zm0 0"/><path d="m275.792969 424.226562h16v16h-16zm0 0"/><path d="m363.792969 440.226562h16v16h-16zm0 0"/><path d="m26.921875 85.683594c-15.980469 49.933594-23.792969 102.117187-23.128906 154.542968 0 19.007813.597656 38.023438 1.78125 56.511719l16-1.023437c-1.199219-18.152344-1.78125-36.816406-1.78125-55.488282-.664063-50.695312 6.863281-101.164062 22.296875-149.457031zm0 0"/><path d="m264.089844 365.738281 15.199218 4.976563c1.753907-5.335938 3.449219-10.726563 5.085938-16.175782l-15.3125-4.625c-1.605469 5.324219-3.261719 10.597657-4.972656 15.824219zm0 0"/><path d="m273.671875 334.066406 15.40625 4.320313c6.683594-23.871094 12.507813-48.929688 17.304687-74.472657 10.050782-50.265624 12.148438-101.796874 6.210938-152.710937l-15.867188 2.046875c5.71875 49.25 3.671876 99.097656-6.070312 147.710938-4.703125 25.089843-10.425781 49.664062-16.984375 73.105468zm0 0"/></svg>