<svg height="463pt" viewBox="-31 1 463 463.99896" width="463pt" xmlns="http://www.w3.org/2000/svg"><g fill="#e2146a"><path d="m40.5 8h320c8.835938 0 16 7.164062 16 16v64c0 8.835938-7.164062 16-16 16h-320c-8.835938 0-16-7.164062-16-16v-64c0-8.835938 7.164062-16 16-16zm0 0"/><path d="m120.5 104h80v312c0 22.089844-17.910156 40-40 40-22.09375 0-40-17.910156-40-40zm0 0"/><path d="m40.5 104h80v312c0 22.089844-17.910156 40-40 40-22.09375 0-40-17.910156-40-40zm0 0"/><path d="m200.5 104h80v312c0 22.089844-17.910156 40-40 40-22.09375 0-40-17.910156-40-40zm0 0"/><path d="m280.5 104h80v312c0 22.089844-17.910156 40-40 40-22.09375 0-40-17.910156-40-40zm0 0"/></g><path d="m104.5 104v296c0 22.089844-17.910156 40-40 40-6.652344-.042969-13.1875-1.765625-19-5 8.65625 16.125 27.179688 24.28125 44.917969 19.789062 17.742187-4.496093 30.144531-20.488281 30.082031-38.789062v-312zm0 0" fill="#bd175c"/><path d="m184.5 104v296c0 22.089844-17.910156 40-40 40-6.652344-.042969-13.1875-1.765625-19-5 8.65625 16.125 27.179688 24.28125 44.917969 19.789062 17.742187-4.496093 30.144531-20.488281 30.082031-38.789062v-312zm0 0" fill="#bd175c"/><path d="m264.5 104v296c0 22.089844-17.910156 40-40 40-6.652344-.042969-13.1875-1.765625-19-5 8.65625 16.125 27.179688 24.28125 44.917969 19.789062 17.742187-4.496093 30.144531-20.488281 30.082031-38.789062v-312zm0 0" fill="#bd175c"/><path d="m344.5 104v296c0 22.089844-17.910156 40-40 40-6.652344-.042969-13.1875-1.765625-19-5 8.65625 16.125 27.179688 24.28125 44.917969 19.789062 17.742187-4.496093 30.144531-20.488281 30.082031-38.789062v-312zm0 0" fill="#bd175c"/><path d="m40.5 104h320v16h-320zm0 0" fill="#bd175c"/><path d="m78.15625 77.65625 10.34375-10.34375 10.34375 10.34375 11.3125-11.3125-10.34375-10.34375 10.34375-10.34375-11.3125-11.3125-10.34375 10.34375-10.34375-10.34375-11.3125 11.3125 10.34375 10.34375-10.34375 10.34375zm0 0"/><path d="m190.15625 77.65625 10.34375-10.34375 10.34375 10.34375 11.3125-11.3125-10.34375-10.34375 10.34375-10.34375-11.3125-11.3125-10.34375 10.34375-10.34375-10.34375-11.3125 11.3125 10.34375 10.34375-10.34375 10.34375zm0 0"/><path d="m302.15625 77.65625 10.34375-10.34375 10.34375 10.34375 11.3125-11.3125-10.34375-10.34375 10.34375-10.34375-11.3125-11.3125-10.34375 10.34375-10.34375-10.34375-11.3125 11.3125 10.34375 10.34375-10.34375 10.34375zm0 0"/><path d="m368.5 110.527344c9.554688-3.378906 15.957031-12.394532 16-22.527344v-64c0-13.253906-10.746094-24-24-24h-320c-13.253906 0-24 10.746094-24 24v64c.042969 10.132812 6.445312 19.148438 16 22.527344v305.472656c.023438 21.164062 13.902344 39.8125 34.167969 45.910156s42.132812-1.792968 53.832031-19.429687c8.871094 13.433593 23.898438 21.519531 40 21.519531s31.125-8.085938 40-21.519531c8.871094 13.433593 23.898438 21.519531 40 21.519531s31.125-8.085938 40-21.519531c11.699219 17.636719 33.566406 25.527343 53.832031 19.429687s34.144531-24.746094 34.167969-45.910156zm-336-86.527344c0-4.417969 3.582031-8 8-8h320c4.417969 0 8 3.582031 8 8v64c0 4.417969-3.582031 8-8 8h-320c-4.417969 0-8-3.582031-8-8zm48 424c-17.671875 0-32-14.328125-32-32v-304h64v304c0 17.671875-14.328125 32-32 32zm80 0c-17.671875 0-32-14.328125-32-32v-304h64v304c0 17.671875-14.328125 32-32 32zm80 0c-17.671875 0-32-14.328125-32-32v-304h64v304c0 17.671875-14.328125 32-32 32zm112-32c0 17.671875-14.328125 32-32 32s-32-14.328125-32-32v-304h64zm0 0"/><path d="m.5 136h16v168h-16zm0 0"/><path d="m384.5 216h16v168h-16zm0 0"/><path d="m384.5 400h16v16h-16zm0 0"/></svg>