<svg height="472pt" viewBox="-4 0 472 472.00283" width="472pt" xmlns="http://www.w3.org/2000/svg"><path d="m40 304c0-120 136-208 136-208h48v208zm0 0" fill="#ccdde6"/><path d="m400 304c0-160-144-256-144-256v256zm0 0" fill="#ccdde6"/><path d="m224 48-72 32 72 104zm0 0" fill="#abbac2"/><path d="m232 440c200 0 200-96 200-96h-400s0 96 200 96zm0 0" fill="#ccdde6"/><path d="m464 424c-25.796875 0-25.796875-18.558594-51.605469-18.558594-25.808593 0-25.800781 18.558594-51.59375 18.558594s-25.785156-18.558594-51.566406-18.558594c-25.785156 0-25.777344 18.558594-51.546875 18.558594-25.765625 0-25.773438-18.558594-51.550781-18.558594-25.773438 0-25.765625 18.558594-51.535157 18.558594-25.769531 0-25.777343-18.558594-51.542968-18.558594-25.769532 0-25.769532 18.558594-51.539063 18.558594-25.765625 0-25.757812-18.558594-51.519531-18.558594v66.558594h464zm0 0" fill="#0093ba"/><path d="m464 416c-7.765625.121094-15.300781-2.648438-21.132812-7.777344-17.773438-14.378906-43.175782-14.378906-60.945313 0-12.175781 10.367188-30.074219 10.367188-42.25 0-17.75-14.378906-43.140625-14.378906-60.894531 0-12.152344 10.371094-30.039063 10.371094-42.191406 0-17.75-14.375-43.140626-14.375-60.886719 0-12.15625 10.371094-30.039063 10.371094-42.195313 0-17.75-14.375-43.136718-14.375-60.886718 0-5.824219 5.125-13.347657 7.898438-21.105469 7.777344-7.746094.121094-15.257813-2.652344-21.070313-7.777344-8.550781-7.082031-19.335937-10.902344-30.441406-10.78125v16c7.75-.125 15.265625 2.644532 21.082031 7.765625 8.546875 7.085938 19.328125 10.910157 30.429688 10.792969 11.109375.121094 21.902343-3.703125 30.457031-10.792969 12.15625-10.355469 30.035156-10.355469 42.191406 0 17.746094 14.390625 43.136719 14.390625 60.882813 0 12.160156-10.355469 30.039062-10.355469 42.199219 0 17.75 14.390625 43.144531 14.390625 60.894531 0 12.15625-10.355469 30.035156-10.355469 42.191406 0 17.765625 14.390625 43.171875 14.390625 60.9375 0 12.179687-10.355469 30.074219-10.355469 42.253906 0 8.566407 7.089844 19.363281 10.914063 30.480469 10.792969zm0 0"/><path d="m464 456c-7.765625.121094-15.300781-2.648438-21.132812-7.777344-17.773438-14.378906-43.175782-14.378906-60.945313 0-12.175781 10.367188-30.074219 10.367188-42.25 0-17.75-14.378906-43.140625-14.378906-60.894531 0-12.152344 10.371094-30.039063 10.371094-42.191406 0-17.75-14.375-43.140626-14.375-60.886719 0-12.15625 10.371094-30.039063 10.371094-42.195313 0-17.75-14.375-43.136718-14.375-60.886718 0-5.824219 5.125-13.347657 7.898438-21.105469 7.777344-7.746094.121094-15.257813-2.652344-21.070313-7.777344-8.550781-7.082031-19.335937-10.902344-30.441406-10.78125v16c7.75-.125 15.265625 2.644532 21.082031 7.765625 8.546875 7.085938 19.328125 10.910157 30.429688 10.792969 11.109375.121094 21.902343-3.703125 30.457031-10.792969 12.15625-10.355469 30.035156-10.355469 42.191406 0 17.746094 14.390625 43.136719 14.390625 60.882813 0 12.160156-10.355469 30.039062-10.355469 42.199219 0 17.75 14.390625 43.144531 14.390625 60.894531 0 12.15625-10.355469 30.035156-10.355469 42.191406 0 17.765625 14.390625 43.171875 14.390625 60.9375 0 12.179687-10.355469 30.074219-10.355469 42.253906 0 8.566407 7.089844 19.363281 10.914063 30.480469 10.792969zm0 0"/><path d="m368 368h16v16h-16zm0 0"/><path d="m336 368h16v16h-16zm0 0"/><path d="m16 296v16h200v24h-184c-4.417969 0-8 3.582031-8 8 0 1.121094.3125 27.710938 27.464844 53.777344l11.074218-11.554688c-10.121093-9.210937-17.46875-21.0625-21.226562-34.222656h381.328125c-2.527344 9.1875-6.925781 17.75-12.917969 25.160156l12.558594 9.902344c10.296875-12.128906 16.496094-27.199219 17.71875-43.0625 0-4.417969-3.582031-8-8-8h-168v-24h160v-16h-16.214844c-4.207031-145.601562-121.382812-236.175781-143.785156-252.175781v-27.824219h-16v320h-16v-336h-16v16h-24v16h24v10.800781l-67.246094 29.886719c-2.175781.96875-3.808594 2.855469-4.453125 5.148438-.644531 2.296874-.230469 4.757812 1.125 6.714843l10.886719 15.730469c-35.078125 26.710938-119.511719 100.671875-124.078125 195.71875zm375.777344 0h-127.777344v-232c33.601562 26.769531 123.929688 109.984375 127.777344 232zm-175.777344-235.6875v98.085938l-51.917969-75zm-50.574219 53.136719 50.574219 73.054687v109.496094h-167.757812c4.625-87.488281 83.589843-156.886719 117.183593-182.550781zm0 0"/></svg>