<svg id="Capa_1" enable-background="new 0 0 512 512" height="512" viewBox="0 0 512 512" width="512" xmlns="http://www.w3.org/2000/svg"><circle cx="256" cy="256" fill="#a66235" r="256"/><path d="m172.839 423.782 88.154 88.155c137.315-2.629 248.15-113.362 250.939-250.637l-203.478-203.479z" fill="#854d28"/><path d="m267.343 49.044c-11.848-13.23-31.405-17.719-48.275-9.731-20.549 9.73-29.319 34.276-19.589 54.824 9.035 19.08 30.842 27.994 50.363 21.382 11.848 13.23 31.405 17.718 48.274 9.73 20.549-9.73 29.319-34.275 19.589-54.823-9.034-19.08-30.841-27.994-50.362-21.382z" fill="#35ef80"/><path d="m317.706 70.426c-9.035-19.08-30.841-27.994-50.363-21.382-3.109-3.472-6.753-6.335-10.737-8.536v81.047c11.75 8.364 27.548 10.306 41.511 3.695 20.548-9.73 29.319-34.276 19.589-54.824z" fill="#00d65b"/><circle cx="236.623" cy="84.957" fill="#ff432e" r="24.957"/><path d="m256.606 70.004v29.905c3.123-4.167 4.974-9.344 4.974-14.952 0-5.609-1.851-10.785-4.974-14.953z" fill="#f24500"/><path d="m290 395h-124v-281.281c0-20.279 16.44-36.719 36.719-36.719h7.764c43.916 0 79.517 35.601 79.517 79.518z" fill="#fcca29"/><path d="m219 395h124v-281.281c0-20.279-16.44-36.719-36.719-36.719h-7.764c-43.916 0-79.517 35.601-79.517 79.518z" fill="#fa0"/><path d="m343 113.719c0-20.28-16.44-36.719-36.719-36.719h-7.764c-15.385 0-29.741 4.382-41.911 11.947v306.053h86.394z" fill="#ff9500"/><path d="m310.013 435h-108.026c-24.017 0-43.487-19.47-43.487-43.487v-195.697h195v195.696c0 24.018-19.47 43.488-43.487 43.488z" fill="#fff"/><path d="m256.606 195.816v239.184h53.407c24.017 0 43.487-19.47 43.487-43.487v-195.697z" fill="#e9edf5"/></svg>