<svg height="512pt" viewBox="0 0 512 512" width="512pt" xmlns="http://www.w3.org/2000/svg"><path d="m512 256c0 141.386719-114.613281 256-256 256s-256-114.613281-256-256 114.613281-256 256-256 256 114.613281 256 256zm0 0" fill="#00c800"/><path d="m113.460938 363.769531s84.15625 84.144531 148.179687 148.160157c137.445313-2.972657 248.195313-114.269532 250.308594-251.925782l-129.964844-129.980468zm0 0" fill="#00ad00"/><path d="m237.742188 312.695312-12.625-12.628906-6.570313-6.566406-19.234375-19.230469-40.332031 40.332031c-13.15625-11.292968-33.058594-10.703124-45.519531 1.753907-6.332032 6.328125-9.820313 14.75-9.820313 23.703125 0 8.957031 3.488281 17.375 9.820313 23.707031 6.863281 6.863281 15.988281 10.121094 25.007812 9.773437v.015626c-.351562 9.011718 2.917969 18.136718 9.773438 24.992187 6.535156 6.535156 15.125 9.804687 23.707031 9.804687s17.167969-3.269531 23.703125-9.804687c6.332031-6.328125 9.820312-14.75 9.820312-23.703125 0-8.085938-2.84375-15.742188-8.066406-21.8125zm0 0" fill="#dfcdbd"/><path d="m381.984375 257.566406c-17.566406 17.5625-50.667969 36.617188-82.363281 47.410156-17.929688 6.105469-34.136719 9.230469-48.179688 9.292969h-.410156c-17.09375 0-30.386719-4.625-39.515625-13.738281-.007813-.007812-.011719-.011719-.019531-.019531-9.203125-9.203125-13.828125-22.644531-13.757813-39.945313.0625-14.042968 3.1875-30.25 9.292969-48.179687 10.792969-31.699219 29.847656-64.796875 47.410156-82.363281 35.164063-35.164063 92.382813-35.164063 127.542969 0 .011719.011718.03125.03125.042969.042968 35.125 35.171875 35.113281 92.351563-.042969 127.5zm0 0" fill="#ffaa20"/><g fill="#ffec97"><path d="m327.363281 131.671875 12.753907 12.753906-12.753907 12.753907-12.753906-12.753907zm0 0"/><path d="m288.035156 131.457031 12.757813 12.757813-12.757813 12.753906-12.753906-12.753906zm0 0"/><path d="m307.382812 159.308594 12.753907 12.753906-12.753907 12.753906-12.757812-12.753906zm0 0"/></g><path d="m197.40625 353.03125c5.222656 6.070312 8.066406 13.726562 8.066406 21.8125 0 8.953125-3.488281 17.375-9.820312 23.703125-6.535156 6.535156-15.121094 9.804687-23.703125 9.804687s-17.171875-3.269531-23.707031-9.804687c-6.855469-6.855469-10.125-15.980469-9.773438-24.992187l80.078125-80.054688 6.570313 6.566406 12.625 12.628906zm0 0" fill="#c8ad92"/><path d="m381.984375 257.566406c-17.566406 17.5625-50.667969 36.617188-82.363281 47.410156-17.929688 6.105469-34.136719 9.230469-48.179688 9.292969h-.410156c-17.09375 0-30.386719-4.625-39.515625-13.738281l170.507813-170.464844c35.128906 35.171875 35.117187 92.351563-.039063 127.5zm0 0" fill="#ff8900"/></svg>