<svg height="512pt" viewBox="0 0 512 512" width="512pt" xmlns="http://www.w3.org/2000/svg"><path d="m512 256c0 141.386719-114.613281 256-256 256s-256-114.613281-256-256 114.613281-256 256-256 256 114.613281 256 256zm0 0" fill="#f00"/><path d="m299.761719 508.261719c117.511719-20.246094 207.605469-120.589844 212.046875-242.800781l-96.828125-96.828126h-53.535157l-38-38.914062-166.175781 236.050781zm0 0" fill="#e70020"/><path d="m432.132812 298.734375h-35.449218v-111.808594h-76.535156v-18.296875h94.832031v111.808594h17.152343zm0 0" fill="#644b31"/><path d="m323.445312 129.714844v47.171875h-155.105468l-32.8125-47.171875zm0 0" fill="#ffaa20"/><path d="m371.898438 276.269531c0 69.484375-56.53125 126.015625-126.011719 126.015625h-.34375c-69.324219-.183594-125.671875-56.644531-125.671875-126.015625 0-5.75.390625-11.441406 1.148437-17.050781 4.238281-31.253906 20.035157-59.855469 44.785157-80.246094l2.535156-2.085937h155.09375l2.535156 2.085937c19.617188 16.160156 33.605469 37.46875 40.675781 61.175782 3.457031 11.582031 5.253907 23.730468 5.253907 36.121093zm0 0" fill="#dfcdbd"/><path d="m371.898438 276.269531c0 69.484375-56.53125 126.015625-126.011719 126.015625h-.34375c-69.324219-.183594-125.671875-56.644531-125.671875-126.015625 0-5.75.390625-11.441406 1.148437-17.050781 5.433594 4.496094 16.351563 12.269531 31.292969 16.746094 28.878906 8.65625 58.890625 1.5 89.195312-21.253906 1.351563-1.011719 2.695313-2 4.039063-2.945313 42.53125-30.207031 78.03125-28.164063 100.597656-20.902344 7.910157 2.542969 14.777344 5.878907 20.5 9.285157 3.457031 11.582031 5.253907 23.730468 5.253907 36.121093zm0 0" fill="#8a6744"/><path d="m371.898438 276.269531c0 69.484375-56.53125 126.015625-126.011719 126.015625h-.34375v-225.398437h77.890625l2.535156 2.085937c19.613281 16.160156 33.605469 37.46875 40.671875 61.175782 3.460937 11.582031 5.257813 23.730468 5.257813 36.121093zm0 0" fill="#c8ad92"/><path d="m245.542969 129.714844h77.902343v47.167968h-77.902343zm0 0" fill="#ff8900"/><path d="m371.898438 276.269531c0 69.484375-56.53125 126.015625-126.011719 126.015625h-.34375v-150.519531c42.535156-30.207031 78.035156-28.164063 100.601562-20.902344 7.910157 2.542969 14.777344 5.878907 20.496094 9.285157 3.460937 11.582031 5.257813 23.730468 5.257813 36.121093zm0 0" fill="#644b31"/></svg>