<svg height="512pt" viewBox="0 0 512 512" width="512pt" xmlns="http://www.w3.org/2000/svg"><path d="m512 256c0 141.386719-114.613281 256-256 256s-256-114.613281-256-256 114.613281-256 256-256 256 114.613281 256 256zm0 0" fill="#ff2e00"/><path d="m512 256c0-22.382812-2.882812-44.089844-8.277344-64.78125l-91.824218-91.824219c-32.671876-32.671875-85.925782-33.042969-122.359376-2.097656-31.734374-17.082031-73.289062-11.28125-101.367187 16.796875-25.3125 25.316406-32.519531 61.582031-21.171875 91.734375-1.808594 1.457031-3.566406 3.015625-5.246094 4.699219-23.394531 23.394531-25.164062 59.867187-4.621094 83.078125l19.707032 19.636719-87.347656 87.347656 103.617187 103.617187c20.121094 5.082031 41.191406 7.792969 62.890625 7.792969 141.386719 0 256-114.613281 256-256zm0 0" fill="#bb1000"/><path d="m89.492188 400.585938 152.550781-152.550782 21.210937 21.214844-152.550781 152.550781zm0 0" fill="#fff"/><path d="m100.097656 411.191406 152.550782-152.546875 10.605468 10.605469-152.550781 152.550781zm0 0" fill="#fff5ca"/><path d="m123.242188 366.839844-23.246094 23.246094 30.722656 11.703124 23.246094-23.246093zm0 0" fill="#ffee93"/><path d="m153.960938 378.546875-23.242188 23.242187-15.363281-5.847656 23.246093-23.25zm0 0" fill="#ffdc00"/><path d="m193.164062 339.34375-30.722656-11.703125-23.246094 23.246094 30.722657 11.707031zm0 0" fill="#ffee93"/><path d="m193.164062 339.34375-23.25 23.25-15.359374-5.855469 23.242187-23.242187zm0 0" fill="#ffdc00"/><path d="m397.203125 323.121094c28.078125-28.078125 33.878906-69.628906 16.796875-101.367188 30.945312-36.433594 30.574219-89.683594-2.097656-122.359375-32.675782-32.671875-85.929688-33.042969-122.359375-2.097656-31.738281-17.082031-73.289063-11.28125-101.367188 16.796875-25.316406 25.3125-32.519531 61.578125-21.175781 91.730469-1.808594 1.460937-3.566406 3.019531-5.246094 4.703125-24.261718 24.257812-25.265625 62.582031-2.25 85.601562 10.699219 10.699219 24.707032 16.199219 39.066406 16.59375.398438 14.363282 5.898438 28.371094 16.597657 39.066406 23.015625 23.019532 61.34375 22.011719 85.601562-2.246093 1.683594-1.683594 3.242188-3.4375 4.699219-5.246094 30.152344 11.34375 66.417969 4.140625 91.734375-21.175781zm0 0" fill="#ffb3d7"/><path d="m305.472656 344.296875c-1.460937 1.804687-3.027344 3.5625-4.707031 5.242187-24.257813 24.257813-62.582031 25.269532-85.59375 2.253907-10.703125-10.703125-16.207031-24.703125-16.597656-39.070313l213.324219-213.328125c32.675781 32.675781 33.042968 85.925781 2.101562 122.359375 17.078125 31.738282 11.277344 73.285156-16.804688 101.367188-25.3125 25.316406-61.574218 32.515625-91.722656 21.175781zm0 0" fill="#ff91c5"/><path d="m276.960938 158.914062c1.742187 1.742188 3.277343 3.613282 4.628906 5.578126 11.414062-6.757813 26.375-5.230469 36.1875 4.582031 1.976562 1.976562 3.609375 4.164062 4.914062 6.488281 6.363282-11.335938 4.730469-25.953125-4.914062-35.601562-9.8125-9.8125-24.773438-11.339844-36.1875-4.582032-1.351563-1.964844-2.886719-3.835937-4.628906-5.578125-15.398438-15.398437-40.363282-15.398437-55.757813 0-11.472656 11.472657-14.390625 28.253907-8.765625 42.433594 1.921875-4.847656 4.839844-9.398437 8.765625-13.320313 15.394531-15.398437 40.359375-15.398437 55.757813 0zm0 0" fill="#ff92c5"/><path d="m348.933594 249.195312c-6.046875-6.683593-15.636719-8.246093-23.328125-4.417968 1.488281.9375 2.878906 2.085937 4.117187 3.453125 6.785156 7.503906 6.707032 18.800781.160156 26.203125.273438.277344.542969.554687.804688.847656 9.652344 10.667969 8.828125 27.140625-1.839844 36.789062-2.71875 2.460938-5.816406 4.234376-9.082031 5.34375 9.171875 4.179688 20.339844 2.808594 28.289063-4.382812 10.667968-9.648438 11.492187-26.121094 1.84375-36.789062-.261719-.289063-.535157-.570313-.804688-.847657 6.546875-7.402343 6.625-18.699219-.160156-26.199219zm0 0" fill="#ff74b3"/></svg>