<svg id="Capa_1" enable-background="new 0 0 512 512" height="512" viewBox="0 0 512 512" width="512" xmlns="http://www.w3.org/2000/svg"><circle cx="256" cy="256" fill="#35ef80" r="256"/><path d="m512 256c0-7.409-.333-14.739-.95-21.988l-155.441-155.441-31.808 51.502-65.94-65.94-13.09 61.466-42.256-42.256-54.865 338.787 89.156 89.157c6.336.468 12.736.713 19.194.713 141.385 0 256-114.615 256-256z" fill="#00c663"/><path d="m145.434 126.511h47.22v161h-47.22z" fill="#ffee6e" transform="matrix(.978 -.211 .211 .978 -39.864 40.317)"/><path d="m172.806 86.511h47.22v161h-47.22z" fill="#fff4c5" transform="matrix(.978 -.211 .211 .978 -30.811 45.191)"/><path d="m318.81 105.471h47.219v161h-47.219z" fill="#fff8ab" transform="matrix(.964 .266 -.266 .964 61.869 -84.45)"/><path d="m246.214 86.511h47.219v161h-47.219z" fill="#fff8ab" transform="matrix(.994 .113 -.113 .994 20.519 -29.317)"/><path d="m255.427 84.365-18.125 159.976 18.293 2.073v-162.03z" fill="#fff4c5"/><path d="m287.81 69.38h47.219v161h-47.219z" fill="#ffe45c" transform="matrix(.964 .266 -.266 .964 51.141 -77.5)"/><path d="m210.925 64.215h47.219v161h-47.219z" fill="#ffee6e" transform="matrix(1 -.004 .004 1 -.507 .825)"/><path d="m317.419 171.09c-4.303 20.576-30.156 36.396-61.419 36.396s-57.116-15.82-61.419-36.396h-65.597l18.665 251.039h216.703l18.665-251.039z" fill="#ff432e"/><path d="m383.016 171.09h-65.597c-4.303 20.576-30.156 36.396-61.419 36.396-.136 0-.269-.006-.405-.006v214.649h108.756z" fill="#f24500"/><path d="m141.84 344h228.32l5.651-76h-239.622z" fill="#ff8870"/><path d="m375.811 268h-120.216v76h114.565z" fill="#ff6c52"/></svg>