<svg id="Capa_1" enable-background="new 0 0 512 512" height="512" viewBox="0 0 512 512" width="512" xmlns="http://www.w3.org/2000/svg"><circle cx="256" cy="256" fill="#35ef80" r="256"/><path d="m512 256c0-15.038-1.309-29.77-3.796-44.096l-112.204-112.204-.41.827-20.43-20.43-28.796 67.778-54.37-54.37-.423.83-20.238-20.238-63.784 134.514-101.176-7.031 129.157 129.156-89.53 96.931 82.907 82.907c8.904.936 17.941 1.426 27.093 1.426 141.385 0 256-114.615 256-256z" fill="#00c663"/><path d="m395.06 98.728c-5.476-5.127-14.071-4.844-19.198.632l-.07-.066c5.127-5.476 4.844-14.071-.632-19.198s-14.071-4.844-19.198.632-4.844 14.071.632 19.198l-38.012 40.6 19.9 18.631 38.012-40.6c5.476 5.127 14.071 4.844 19.198-.632s4.844-14.07-.632-19.197z" fill="#fcf2b6"/><path d="m319.965 222.535c-16.392 17.508-43.874 18.413-61.382 2.021s-18.414-43.873-2.022-61.382 68.421-44.633 85.93-28.241-6.134 70.094-22.526 87.602z" fill="#854d28"/><path d="m291.233 92.728c-5.476-5.127-14.071-4.844-19.198.632l-.07-.066c5.127-5.476 4.844-14.071-.632-19.198s-14.071-4.844-19.198.632-4.844 14.071.632 19.198l-38.012 40.6 19.9 18.631 38.012-40.6c5.476 5.127 14.071 4.844 19.198-.632 5.127-5.475 4.844-14.07-.632-19.197z" fill="#fff"/><path d="m216.138 216.535c-16.392 17.508-43.874 18.413-61.382 2.021s-18.414-43.873-2.022-61.382 68.421-44.633 85.93-28.241-6.134 70.094-22.526 87.602z" fill="#a66235"/><path d="m366 427.667h-220l-30-258h280z" fill="#ff432e"/><path d="m396 169.667h-140.405v258h110.405z" fill="#f24500"/><path d="m390.851 208.426h-269.702c-10.703 0-19.379-8.676-19.379-19.379 0-10.703 8.676-19.379 19.379-19.379h269.702c10.703 0 19.379 8.676 19.379 19.379 0 10.702-8.676 19.379-19.379 19.379z" fill="#fff"/><path d="m390.851 169.667h-135.256v38.759h135.256c10.703 0 19.379-8.676 19.379-19.379s-8.676-19.38-19.379-19.38z" fill="#fcf2b6"/></svg>