<?xml version="1.0" encoding="iso-8859-1"?>
<!-- Generator: Adobe Illustrator 19.0.0, SVG Export Plug-In . SVG Version: 6.00 Build 0)  -->
<svg version="1.1" id="Layer_1" xmlns="http://www.w3.org/2000/svg" xmlns:xlink="http://www.w3.org/1999/xlink" x="0px" y="0px"
	 viewBox="0 0 512 512" style="enable-background:new 0 0 512 512;" xml:space="preserve">
<path style="fill:#D92444;" d="M502.856,188.034c-11.36-41.407-33.296-80.519-65.829-113.052
	c-99.975-99.976-262.07-99.976-362.045,0s-99.976,262.07,0,362.045c32.533,32.533,71.646,54.469,113.052,65.829L502.856,188.034z"/>
<path style="fill:#B51E39;" d="M437.027,437.026c67.443-67.443,89.379-163.153,65.829-248.993l-89.44-89.44L98.594,413.415
	l89.44,89.44C273.875,526.406,369.584,504.47,437.027,437.026z"/>
<path style="fill:#FDA409;" d="M405.545,137.946L137.947,405.544c20.606,20.606,48.797,28.998,75.584,25.183L430.729,213.53
	C434.542,186.743,426.151,158.551,405.545,137.946z"/>
<path style="fill:#FC870B;" d="M374.063,232.393l-141.67,141.67c-15.423,15.423-21.708,36.572-18.862,56.666
	c18.42-2.622,36.176-11.015,50.345-25.183l141.668-141.671c14.168-14.168,22.561-31.925,25.183-50.345
	C410.635,210.684,389.486,216.97,374.063,232.393z"/>
<path style="fill:#FFC207;" d="M298.479,81.28L81.281,298.479c-3.814,26.787,4.578,54.979,25.183,75.584l267.599-267.598
	C353.457,85.858,325.266,77.467,298.479,81.28z"/>
<path style="fill:#FDA409;" d="M137.947,279.616l141.67-141.67c15.423-15.423,21.708-36.572,18.862-56.666
	c-18.42,2.622-36.176,11.015-50.345,25.183L106.465,248.134c-14.168,14.168-22.561,31.925-25.183,50.345
	C101.375,301.324,122.524,295.038,137.947,279.616z"/>
<path style="fill:#F8513A;" d="M413.415,98.594l-173.151,141.67L98.594,413.415c17.387,17.387,45.577,17.387,62.965,0
	l251.857-251.857C430.804,144.17,430.802,115.981,413.415,98.594z"/>
<path style="fill:#FA7461;" d="M350.452,98.594L98.594,350.451c-17.387,17.387-17.387,45.578,0,62.965L413.415,98.594
	C396.028,81.207,367.839,81.205,350.452,98.594z"/>
<path style="fill:#FFD23E;" d="M389.312,137.454c-4.346-4.347-11.394-4.347-15.741,0c-12.898,12.898-22.002,15.931-32.543,19.446
	c-11.542,3.847-24.627,8.209-41.241,24.824c-16.615,16.616-20.976,29.7-24.825,41.243c-3.513,10.541-6.547,19.642-19.445,32.542
	l-3.26,19.001l19.001-3.26c16.615-16.615,20.976-29.7,24.825-41.243c3.513-10.54,6.547-19.642,19.445-32.54
	c12.898-12.899,22.001-15.934,32.542-19.446c11.542-3.848,24.627-8.208,41.242-24.825
	C393.658,148.849,393.658,141.8,389.312,137.454z"/>
<path style="fill:#FFE376;" d="M255.516,255.509c-12.899,12.899-22.003,15.933-32.544,19.449
	c-11.544,3.848-24.629,8.21-41.246,24.826c-16.616,16.617-20.978,29.701-24.825,41.245c-3.514,10.542-6.548,19.644-19.447,32.544
	c-4.346,4.347-4.346,11.394,0,15.742c4.347,4.345,11.394,4.345,15.741,0c16.616-16.617,20.978-29.701,24.825-41.246
	c3.514-10.541,6.548-19.643,19.449-32.543c12.9-12.9,22.004-15.935,32.545-19.45c11.545-3.848,24.629-8.209,41.245-24.826
	L255.516,255.509z"/>
<g>
</g>
<g>
</g>
<g>
</g>
<g>
</g>
<g>
</g>
<g>
</g>
<g>
</g>
<g>
</g>
<g>
</g>
<g>
</g>
<g>
</g>
<g>
</g>
<g>
</g>
<g>
</g>
<g>
</g>
</svg>
