<svg id="Capa_1" enable-background="new 0 0 512 512" height="512" viewBox="0 0 512 512" width="512" xmlns="http://www.w3.org/2000/svg"><circle cx="256" cy="256" fill="#4a7aff" r="256"/><path d="m512 256c0-15.422-1.365-30.525-3.979-45.196l-100.57-100.57-53.743 39.069-53.494-53.494-179.957 149.016 111.329 111.329-84.894 71.513 82.996 82.996c8.651.883 17.428 1.337 26.312 1.337 141.385 0 256-114.615 256-256z" fill="#0053bf"/><path d="m297.154 64.547h47v198.5h-47z" fill="#fff" transform="matrix(.707 .707 -.707 .707 209.74 -178.761)"/><path d="m229.13 158.949h198.5v25.148h-198.5z" fill="#e9edf5" transform="matrix(.707 -.707 .707 .707 -25.105 282.438)"/><circle cx="256" cy="138.382" fill="#fa0" r="61.382"/><path d="m256 77v122.764c33.9 0 61.382-27.481 61.382-61.382s-27.482-61.382-61.382-61.382z" fill="#fa0"/><circle cx="191.346" cy="207.618" fill="#ffd400" r="61.382"/><circle cx="320.654" cy="207.618" fill="#fe8205" r="61.382"/><path d="m365.308 427.667h-218.616l-20-204.589h258.616z" fill="#ff432e"/><path d="m385.308 223.078h-129.308v204.589h109.308z" fill="#f24500"/><path d="m379.199 250h-246.398c-9.828 0-17.794-7.967-17.794-17.794 0-9.828 7.967-17.794 17.794-17.794h246.397c9.828 0 17.794 7.967 17.794 17.794.001 9.827-7.966 17.794-17.793 17.794z" fill="#fff"/><path d="m379.199 214.411h-123.199v35.589h123.199c9.828 0 17.794-7.967 17.794-17.794 0-9.828-7.967-17.795-17.794-17.795z" fill="#e9edf5"/></svg>