<svg id="Capa_1" enable-background="new 0 0 512 512" height="512" viewBox="0 0 512 512" width="512" xmlns="http://www.w3.org/2000/svg"><circle cx="256" cy="256" fill="#4a7aff" r="256"/><path d="m510.766 281.186-240.394-240.394-124.557 155.218 136.469 136.469-108.684 110.729 68.407 68.407c4.633.25 9.297.385 13.993.385 132.885 0 242.112-101.252 254.766-230.814z" fill="#0053bf"/><path d="m154.438 174.931c0-56.091 45.471-101.562 101.562-101.562s101.562 45.471 101.562 101.562z" fill="#fff"/><path d="m256 73.369c-.135 0-.27.005-.405.005v101.557h101.967c0-56.092-45.471-101.562-101.562-101.562z" fill="#fff4c5"/><path d="m241.628 40.792h28.744v322.891h-28.744z" fill="#ffb600"/><path d="m255.595 40.792h14.777v322.891h-14.777z" fill="#ff9500"/><path d="m338.399 443.208h-164.798l-19.163-268.277h203.124z" fill="#fff4c5"/><path d="m357.562 174.931h-101.967v268.277h82.804z" fill="#ffee6e"/><path d="m160.803 264.037 12.797 179.171h164.799l12.798-179.171z" fill="#ffd400"/><path d="m351.197 264.037h-95.602v179.171h82.804z" fill="#fa0"/><path d="m145.815 161.517h220.371v34.493h-220.371z" fill="#ffde52"/><path d="m255.595 161.517h110.59v34.493h-110.59z" fill="#ffd400"/></svg>