<?xml version="1.0" encoding="iso-8859-1"?>
<!-- Generator: Adobe Illustrator 19.0.0, SVG Export Plug-In . SVG Version: 6.00 Build 0)  -->
<svg version="1.1" id="Layer_1" xmlns="http://www.w3.org/2000/svg" xmlns:xlink="http://www.w3.org/1999/xlink" x="0px" y="0px"
	 viewBox="0 0 512 512" style="enable-background:new 0 0 512 512;" xml:space="preserve">
<path style="fill:#B51E39;" d="M502.865,188.049C473.095,79.648,373.856,0,256,0C114.615,0,0,114.615,0,256
	c0,117.856,79.648,217.094,188.049,246.865L502.865,188.049z"/>
<path style="fill:#521F0E;" d="M512,256c0-23.529-3.191-46.309-9.135-67.951l-89.458-89.458L98.592,413.408l89.458,89.458
	c21.641,5.944,44.422,9.135,67.951,9.135C397.385,512,512,397.384,512,256z"/>
<path style="fill:#FFF3AD;" d="M340.56,50.013l-27.668-9.286c-18.16-4.786-37.229-7.336-56.892-7.336L144.696,256L256,478.609
	c122.943,0,222.609-99.665,222.609-222.609C478.609,162.991,421.567,83.304,340.56,50.013z"/>
<path style="fill:#FFFFFF;" d="M199.109,40.727l-27.669,9.286C90.433,83.304,33.391,162.991,33.391,256
	c0,122.943,99.665,222.609,222.609,222.609V33.391C236.337,33.391,217.268,35.941,199.109,40.727z"/>
<path style="fill:#FFD23E;" d="M256,66.783L161.391,256L256,445.217c104.501,0,189.217-84.715,189.217-189.217
	S360.501,66.783,256,66.783z"/>
<path style="fill:#FFE376;" d="M66.783,256c0,104.503,84.716,189.217,189.217,189.217V66.783
	C151.499,66.783,66.783,151.497,66.783,256z"/>
<path style="fill:#F72E12;" d="M122.435,178.087l65.997,10.999l4.762-66.651l-16.267-74.573c-1.839,0.699-3.665,1.42-5.48,2.166
	C140.96,84.322,122.435,128.525,122.435,178.087z"/>
<g>
	<path style="fill:#D92444;" d="M176.26,48.116l-5.385,74.319h22.318l5.92-81.695C191.319,42.793,183.694,45.262,176.26,48.116z"/>
	<path style="fill:#D92444;" d="M389.565,178.087l-65.997,10.999l-4.762-66.651l16.267-74.573c1.839,0.699,3.665,1.42,5.479,2.166
		C371.04,84.322,389.565,128.525,389.565,178.087z"/>
</g>
<path style="fill:#B51E39;" d="M335.74,48.116l5.385,74.319h-22.318l-5.92-81.695C320.681,42.793,328.306,45.262,335.74,48.116z"/>
<rect x="256" y="178.087" style="fill:#F72E12;" width="133.565" height="22.261"/>
<rect x="122.435" y="178.087" style="fill:#F8513A;" width="133.565" height="22.261"/>
<g>
	<rect x="177.875" y="311.652" style="fill:#F72E12;" width="78.125" height="22.261"/>
	<rect x="222.609" y="89.043" style="fill:#F72E12;" width="22.261" height="44.522"/>
	<rect x="267.13" y="89.043" style="fill:#F72E12;" width="22.261" height="44.522"/>
</g>
<rect x="172.41" y="267.13" style="fill:#D92444;" width="83.59" height="22.261"/>
<rect x="166.957" y="222.609" style="fill:#F72E12;" width="89.043" height="22.261"/>
<rect x="256" y="311.652" style="fill:#D92444;" width="78.125" height="22.261"/>
<rect x="256" y="267.13" style="fill:#B51E39;" width="83.59" height="22.261"/>
<rect x="256" y="222.609" style="fill:#D92444;" width="89.043" height="22.261"/>
<path style="fill:#F72E12;" d="M290.504,395.13l18.952,40.495c1.393,2.908,2.196,6.153,2.196,9.592
	c0,12.295-9.966,22.261-22.261,22.261c-10.489,0-19.261-7.264-21.618-17.031l-21.148-87.484L290.504,395.13z"/>
<path style="fill:#F8513A;" d="M221.496,395.13l-18.952,40.495c-1.394,2.908-2.196,6.153-2.196,9.592
	c0,12.295,9.966,22.261,22.261,22.261c10.489,0,19.261-7.264,21.618-17.031l21.148-87.484L221.496,395.13z"/>
<path style="fill:#D92444;" d="M283.263,445.187l-10.567-50.057L244.87,372.87L256,478.609c15.368,0,27.826-12.458,27.826-27.826
	C283.826,448.866,283.632,446.995,283.263,445.187z"/>
<g>
	<path style="fill:#F72E12;" d="M239.304,395.13l-10.567,50.057c-0.37,1.808-0.563,3.679-0.563,5.595
		c0,15.368,12.458,27.826,27.826,27.826V372.87L239.304,395.13z"/>
	<polygon style="fill:#F72E12;" points="306.195,267.13 311.652,222.609 244.87,200.348 244.87,289.391 	"/>
	<polygon style="fill:#F72E12;" points="244.87,289.391 244.87,378.435 295.279,356.174 300.738,311.652 	"/>
</g>
<g>
	<polygon style="fill:#D92444;" points="256,311.652 300.738,311.652 306.195,267.13 256,267.13 244.87,289.391 	"/>
	<polygon style="fill:#D92444;" points="256,395.13 290.504,395.13 295.279,356.174 256,356.174 244.87,375.652 	"/>
</g>
<g>
	<polygon style="fill:#F8513A;" points="256,200.348 200.348,222.609 205.805,267.13 230.903,278.261 256,267.13 	"/>
	<polygon style="fill:#F8513A;" points="256,311.652 233.631,300.522 211.262,311.652 216.721,356.174 236.36,367.304 256,356.174 	
		"/>
</g>
<g>
	<polygon style="fill:#F72E12;" points="216.721,356.174 221.496,395.13 256,395.13 256,356.174 	"/>
	<polygon style="fill:#F72E12;" points="256,267.13 205.805,267.13 211.262,311.652 256,311.652 	"/>
</g>
<path style="fill:#D92444;" d="M309.886,208.651l-21.546-83.432c-3.724-14.417-16.79-25.046-32.339-25.046l-33.391,89.043
	L256,222.609h55.652C311.652,217.788,311.038,213.112,309.886,208.651z"/>
<path style="fill:#F72E12;" d="M223.668,125.191c-0.008,0.029-21.554,83.46-21.554,83.46c-1.152,4.461-1.766,9.137-1.766,13.958H256
	V100.174C240.451,100.174,227.385,110.802,223.668,125.191z"/>
<g>
	<rect x="404.035" y="246.539" style="fill:#FFC207;" width="18.922" height="18.922"/>
	<rect x="370.643" y="335.583" style="fill:#FFC207;" width="18.922" height="18.922"/>
</g>
<g>
	<rect x="89.043" y="246.539" style="fill:#FFD23E;" width="18.922" height="18.922"/>
	<rect x="122.435" y="279.93" style="fill:#FFD23E;" width="18.922" height="18.922"/>
	<rect x="166.957" y="380.104" style="fill:#FFD23E;" width="18.922" height="18.922"/>
</g>
<g>
</g>
<g>
</g>
<g>
</g>
<g>
</g>
<g>
</g>
<g>
</g>
<g>
</g>
<g>
</g>
<g>
</g>
<g>
</g>
<g>
</g>
<g>
</g>
<g>
</g>
<g>
</g>
<g>
</g>
</svg>
