<svg id="Capa_1" enable-background="new 0 0 512 512" height="512" viewBox="0 0 512 512" width="512" xmlns="http://www.w3.org/2000/svg"><circle cx="256" cy="256" fill="#4a7aff" r="256"/><path d="m511.713 267.949-207.948-207.949-113.833 54.859-42.283 307.27 89.156 89.156c6.337.47 12.737.715 19.195.715 137.379 0 249.471-108.215 255.713-244.051z" fill="#0053bf"/><path d="m203.628 248.576c-38.251 0-69.372-31.12-69.372-69.372s31.12-69.372 69.372-69.372 69.372 31.121 69.372 69.373-31.12 69.371-69.372 69.371zm0-92.743c-12.887 0-23.372 10.484-23.372 23.372s10.484 23.372 23.372 23.372 23.372-10.485 23.372-23.372-10.484-23.372-23.372-23.372z" fill="#fff4c5"/><path d="m273 179.205c0-38.167-30.985-69.229-69.121-69.365v46c12.772.135 23.121 10.561 23.121 23.365s-10.349 23.23-23.121 23.365v46c38.136-.136 69.121-31.198 69.121-69.365z" fill="#fcca29"/><path d="m308.371 282.293c-38.251 0-69.371-31.12-69.371-69.372s31.12-69.371 69.371-69.371c38.252 0 69.372 31.12 69.372 69.371s-31.12 69.372-69.372 69.372zm0-92.743c-12.887 0-23.371 10.484-23.371 23.371s10.484 23.372 23.371 23.372c12.888 0 23.372-10.484 23.372-23.372 0-12.886-10.484-23.371-23.372-23.371z" fill="#ffd400"/><path d="m308.371 143.55c-.287 0-.57.018-.856.022v46c.285-.011.569-.022.856-.022 12.888 0 23.372 10.484 23.372 23.371s-10.484 23.372-23.372 23.372c-.287 0-.571-.011-.856-.021v46c.286.003.569.021.856.021 38.252 0 69.372-31.12 69.372-69.372s-31.12-69.371-69.372-69.371z" fill="#fdba12"/><path d="m256 172.979c-36.727 0-66.607-29.88-66.607-66.607 0-36.728 29.88-66.607 66.607-66.607 36.728 0 66.607 29.88 66.607 66.607s-29.879 66.607-66.607 66.607zm0-87.215c-11.363 0-20.607 9.245-20.607 20.607s9.244 20.607 20.607 20.607 20.607-9.244 20.607-20.607-9.244-20.607-20.607-20.607z" fill="#ffd400"/><path d="m256 39.764v46c11.363 0 20.607 9.245 20.607 20.607s-9.244 20.607-20.607 20.607v46c36.728 0 66.607-29.88 66.607-66.607s-29.879-66.607-66.607-66.607z" fill="#fa0"/><path d="m317.419 207.486c-4.303 17.593-30.156 31.119-61.419 31.119s-57.116-13.526-61.419-31.119h-65.597l18.665 214.643h216.703l18.665-214.643z" fill="#ff432e"/><path d="m383.016 207.486h-65.597c-4.303 17.593-30.156 31.119-61.419 31.119v183.524h108.352z" fill="#db0404"/></svg>