<svg height="512pt" viewBox="0 0 512 512" width="512pt" xmlns="http://www.w3.org/2000/svg"><path d="m512 256v.308594c-.140625 113.910156-74.671875 210.402344-177.628906 243.460937-.082032.03125-.171875.058594-.25.082031-.0625.019532-.121094.039063-.179688.058594-24.582031 7.851563-50.761718 12.089844-77.941406 12.089844-141.378906 0-256-114.621094-256-256s114.621094-256 256-256 256 114.621094 256 256zm0 0" fill="#a8d32a"/><path d="m512 256.148438v.160156c-.140625 113.910156-74.671875 210.402344-177.628906 243.460937l-.25.082031-78.121094-78.121093 142.988281-278.609375s51.792969 51.800781 113.011719 113.027344zm0 0" fill="#81a713"/><path d="m396 151.734375c-26.832031-26.835937-89.0625-41.523437-140.195312-41.523437-65.992188 0-104.796876 14.3125-139.804688 41.523437l140 270zm0 0" fill="#ffcd00"/><path d="m396 151.730469-12.679688 24.460937-57.320312 110.539063-70 135v-311.519531c51.101562.039062 113.199219 14.71875 140 41.519531zm0 0" fill="#ff9600"/><path d="m255.804688 136.265625c54.785156 0 102.164062 16.074219 127.511718 39.929687l18.414063-30.191406c-26.152344-28.8125-79.933594-49.734375-145.925781-49.734375-65.992188 0-107.074219 19.375-145.335938 49.929688l18.207031 29.976562c25.257813-23.84375 72.355469-39.910156 127.128907-39.910156zm0 0" fill="#ff9600"/><path d="m401.730469 146-18.410157 30.191406c-25.320312-23.820312-72.609374-39.882812-127.320312-39.921875v-40c65.910156.039063 119.609375 20.949219 145.730469 49.730469zm0 0" fill="#ff6015"/><path d="m170.910156 257.636719c16.316406-2.976563 28.6875-17.25 28.6875-34.421875 0-19.332032-15.671875-35-35-35-9.539062 0-18.179687 3.816406-24.492187 10.003906zm0 0" fill="#ff455a"/><path d="m291 307.214844c0 19.328125-15.671875 35-35 35s-35-15.671875-35-35c0-19.332032 15.671875-35 35-35s35 15.667968 35 35zm0 0" fill="#ff455a"/><path d="m291 307.210938c0 19.328124-15.671875 35-35 35v-70c19.328125 0 35 15.667968 35 35zm0 0" fill="#bf0032"/><path d="m344 195.214844c0 19.328125-15.671875 35-35 35s-35-15.671875-35-35c0-19.332032 15.671875-35 35-35s35 15.667968 35 35zm0 0" fill="#bf0032"/><path d="m241.9375 237.289062c0 8.285157-6.71875 15-15 15-8.285156 0-15-6.714843-15-15 0-8.285156 6.714844-15 15-15 8.28125 0 15 6.714844 15 15zm0 0" fill="#004692"/><path d="m242.9375 167.289062c0 8.285157-6.71875 15-15 15-8.285156 0-15-6.714843-15-15 0-8.285156 6.714844-15 15-15 8.28125 0 15 6.714844 15 15zm0 0" fill="#ff9600"/><path d="m271 375.289062c0 8.285157-6.714844 15-15 15s-15-6.714843-15-15c0-8.285156 6.714844-15 15-15s15 6.714844 15 15zm0 0" fill="#004692"/><path d="m271 375.289062c0 8.28125-6.71875 15-15 15v-30c8.28125 0 15 6.722657 15 15zm0 0" fill="#3d3339"/><path d="m321.9375 257.289062c0 8.285157-6.71875 15-15 15-8.285156 0-15-6.714843-15-15 0-8.285156 6.714844-15 15-15 8.28125 0 15 6.714844 15 15zm0 0" fill="#ff6015"/></svg>