<svg height="512pt" viewBox="0 0 512 512" width="512pt" xmlns="http://www.w3.org/2000/svg"><path d="m512 256c0 141.386719-114.613281 256-256 256s-256-114.613281-256-256 114.613281-256 256-256 256 114.613281 256 256zm0 0" fill="#ffdb2d"/><path d="m307.429688 506.828125c116.734374-23.808594 204.570312-127.058594 204.570312-250.828125 0-22.648438-2.953125-44.605469-8.476562-65.523438l-85.769532-85.769531-48.402344 33-32.957031-33-45.097656 70.015625-122.914063 165.269532s39.339844 39.351562 39.511719 39.523437v27.777344zm0 0" fill="#fec000"/><path d="m207.894531 364.152344h97.304688v43.140625h-97.304688zm0 0" fill="#00ad00"/><path d="m256.542969 364.152344h48.65625v43.140625h-48.65625zm0 0" fill="#009100"/><path d="m317.464844 104.707031-29.4375 78.757813 16.609375 6.207031 31.757812-84.964844zm0 0" fill="#ff8900"/><path d="m395.222656 104.707031-77.703125 99.109375 13.953125 10.9375 86.28125-110.046875zm0 0" fill="#ff8900"/><path d="m350.441406 257.578125c0 .242187-.007812.484375-.007812.722656l-.003906.28125-.101563 8.757813h-187.566406l-.109375-9.039063c0-.238281-.003906-.480469-.003906-.722656 0-49.183594 42.121093-89.191406 93.894531-89.191406 51.777343 0 93.898437 40.007812 93.898437 89.191406zm0 0" fill="#ffec97"/><path d="m350.328125 267.339844h-93.785156v-98.953125c51.777343 0 93.898437 40.007812 93.898437 89.191406 0 .242187-.007812.484375-.007812.722656l-.003906.28125zm0 0" fill="#ffe670"/><path d="m378.835938 259.675781c0 9.621094-1.238282 18.972657-3.578126 27.914063-1.597656 6.113281-3.707031 12.035156-6.289062 17.726562-18.71875 41.351563-62.066406 70.382813-112.425781 70.382813s-93.707031-29.027344-112.421875-70.382813c-2.585938-5.6875-4.691406-11.613281-6.289063-17.726562-2.339843-8.945313-3.582031-18.292969-3.582031-27.914063 0-.308593.007812-.609375.011719-.914062l.105469-9.148438h244.351562l.105469 9.152344c.007812.300781.011719.601563.011719.910156zm0 0" fill="#83e46f"/><path d="m378.835938 259.675781c0 9.621094-1.238282 18.972657-3.578126 27.914063-1.597656 6.113281-3.707031 12.035156-6.289062 17.726562-18.71875 41.351563-62.066406 70.382813-112.425781 70.382813v-126.089844h122.175781l.105469 9.15625c.007812.300781.011719.601563.011719.910156zm0 0" fill="#00c800"/><path d="m375.257812 287.589844c-1.597656 6.113281-3.707031 12.035156-6.289062 17.726562h-224.847656c-2.585938-5.6875-4.691406-11.613281-6.289063-17.726562zm0 0" fill="#00ad00"/><path d="m375.257812 287.589844c-1.597656 6.113281-3.707031 12.035156-6.289062 17.726562h-112.425781v-17.726562zm0 0" fill="#009100"/></svg>