<svg id="Capa_1" enable-background="new 0 0 512 512" height="512" viewBox="0 0 512 512" width="512" xmlns="http://www.w3.org/2000/svg"><circle cx="256" cy="256" fill="#ff432e" r="256"/><path d="m511.735 267.377-149.453-158.421-62.436 56.345-91.432-91.431-63.249 49.604 57.238 57.238-59.519 254.288 74.035 74.035c12.742 1.951 25.793 2.965 39.081 2.965 137.571 0 249.781-108.519 255.735-244.623z" fill="#db0404"/><path d="m362.282 108.956c13.178 18.064-.426 44.502-25.195 61.168-24.917 16.634-52.681 18.904-67.232 3.514-14.411-15.298-9.159-44.525 17.113-63.875 26.151-19.404 62.278-18.868 75.314-.807z" fill="#fff4c5"/><path d="m213.458 139.397c-16.699 12.907-43.746 6.359-66.086-13.843-22.179-20.19-30.947-48.401-13.864-64.276 16.937-15.884 53.112-10.63 74.907 12.591 21.93 23.169 21.586 52.674 5.043 65.528z" fill="#fff4c5"/><path d="m122.884 147.214v254.786l20 33h226.232l20-33v-254.786z" fill="#ffd400"/><path d="m256 147.214v287.786h113.116l20-33v-254.786z" fill="#fa0"/><path d="m122.884 402 20 33h226.232l20-33z" fill="#ffde52"/><path d="m389.116 402h-133.116v33h113.116z" fill="#ffd400"/><path d="m389.116 302.538-266.232 79.31v-110.445l266.232-79.31z" fill="#ffb600"/><path d="m389.116 192.093-133.116 39.655v110.445l133.116-39.655z" fill="#ff9500"/><path d="m312.664 345.707c-25.539 19.747-66.902 9.733-101.066-21.157-33.918-30.874-47.326-74.021-21.202-98.298 25.9-24.3 81.224-16.265 114.554 19.245 33.54 35.426 33.015 80.548 7.714 100.21z" fill="#ffde52"/><path d="m304.951 245.497c-13.771-14.672-31.297-24.639-48.951-29.587v135.596c21.235 7.116 41.676 5.79 56.664-5.799 25.301-19.662 25.826-64.784-7.713-100.21z" fill="#ffd400"/></svg>