<svg id="Capa_1" enable-background="new 0 0 512 512" height="512" viewBox="0 0 512 512" width="512" xmlns="http://www.w3.org/2000/svg"><circle cx="256" cy="256" fill="#ff432e" r="256"/><path d="m58.917 309.32 202.61 202.61c120.62-2.556 220.7-88.532 244.885-202.559l-117.296-117.295z" fill="#db0404"/><path d="m124.599 309.32c0-87.395 70.847-158.242 158.242-158.242s158.242 70.847 158.242 158.242z" fill="#fcca29"/><path d="m387.494 257.131c-.104-.095-.208-.19-.312-.284 2.139-5.664 3.318-11.799 3.318-18.212 0-22.842-14.854-42.204-35.426-48.984-3.963-24.548-25.242-43.297-50.908-43.297-5.349 0-10.507.815-15.359 2.326-9.273-14.241-25.378-23.626-43.674-23.476-28.496.233-51.655 24.039-51.138 52.531.509 28.046 23.403 50.624 51.57 50.624 5.349 0 10.507-.815 15.359-2.326 6.334 9.727 15.856 17.181 27.09 20.883 1.909 11.826 7.833 22.307 16.337 29.993-2.139 5.664-3.318 11.799-3.318 18.212h71.465c19.913-.001 29.661-24.518 14.996-37.99z" fill="#00d65b"/><path d="m301.032 295.12h2.182v-14.817c-1.409 4.695-2.182 9.664-2.182 14.817z" fill="#ace237"/><path d="m387.494 257.131c-.104-.095-.208-.19-.312-.284 2.139-5.664 3.318-11.799 3.318-18.212 0-22.842-14.854-42.204-35.426-48.984-3.963-24.548-25.242-43.297-50.908-43.297-.319 0-.635.012-.952.018v129.467c.375.36.75.721 1.136 1.07-.42 1.112-.792 2.248-1.136 3.395v14.817h69.283c19.914-.001 29.662-24.518 14.997-37.99z" fill="#02cc4a"/><path d="m58.917 309.32c0-87.395 70.847-158.242 158.242-158.242s158.242 70.847 158.242 158.242z" fill="#fcca29"/><path d="m217.159 151.078c-.284 0-.566.009-.849.011v158.231h159.091c0-87.395-70.848-158.242-158.242-158.242z" fill="#fa0"/><path d="m136.75 214.68h160.817v94.639h-160.817z" fill="#fff"/><path d="m216.31 214.68h81.258v94.639h-81.258z" fill="#e9edf5"/></svg>